<?xml version="1.0" encoding="UTF-8"?>
<svg version="1.1" xmlns="http://www.w3.org/2000/svg" width="140" height="140">
<path d="M0 0 C21.45 0 42.9 0 65 0 C65.495 1.485 65.495 1.485 66 3 C66.99 3.33 67.98 3.66 69 4 C69 4.66 69 5.32 69 6 C69.66 6 70.32 6 71 6 C71.495 8.97 71.495 8.97 72 12 C72.66 12 73.32 12 74 12 C74.50660156 13.22976562 74.50660156 13.22976562 75.0234375 14.484375 C75.46945313 15.56203125 75.91546875 16.6396875 76.375 17.75 C76.81585938 18.81734375 77.25671875 19.8846875 77.7109375 20.984375 C78.90788047 23.89858159 78.90788047 23.89858159 80.1640625 26.203125 C81 28 81 28 81 31 C81.66 31 82.32 31 83 31 C83.495 32.98 83.495 32.98 84 35 C85.17369141 35.09087891 85.17369141 35.09087891 86.37109375 35.18359375 C87.38300781 35.26738281 88.39492187 35.35117187 89.4375 35.4375 C90.44683594 35.51871094 91.45617187 35.59992187 92.49609375 35.68359375 C95 36 95 36 96 37 C99.26270382 37.4186454 102.52867081 37.77227068 105.80078125 38.109375 C109.72470926 39.20175056 110.73795001 40.70786317 113 44 C113.66 44.33 114.32 44.66 115 45 C115 56.88 115 68.76 115 81 C112.525 81.495 112.525 81.495 110 82 C110 82.66 110 83.32 110 84 C107.03 84.495 107.03 84.495 104 85 C104 85.66 104 86.32 104 87 C102.515 87.495 102.515 87.495 101 88 C99.97388051 89.65071396 98.97691857 91.31970006 98 93 C95.61029395 95.96653165 94.51200249 96.88184558 90.75 97.75 C89.8425 97.8325 88.935 97.915 88 98 C88 98.66 88 99.32 88 100 C82.06 100 76.12 100 70 100 C70 99.34 70 98.68 70 98 C68.02 97.67 66.04 97.34 64 97 C63.67 96.01 63.34 95.02 63 94 C61.515 93.505 61.515 93.505 60 93 C59.34 91.35 58.68 89.7 58 88 C48.76 88 39.52 88 30 88 C29.34 89.65 28.68 91.3 28 93 C25.66469941 96.00252933 24.49957052 96.8847145 20.75 97.75 C19.8425 97.8325 18.935 97.915 18 98 C18 98.66 18 99.32 18 100 C12.06 100 6.12 100 0 100 C0 99.34 0 98.68 0 98 C-1.98 97.67 -3.96 97.34 -6 97 C-6.33 96.01 -6.66 95.02 -7 94 C-7.99 93.67 -8.98 93.34 -10 93 C-10.433125 91.7625 -10.433125 91.7625 -10.875 90.5 C-11.431875 89.2625 -11.431875 89.2625 -12 88 C-13.66500443 87.65846063 -15.33178677 87.32550502 -17 87 C-20.97131578 82.43360858 -20.41786204 77.34222599 -20.36328125 71.625 C-20.36377975 70.62291504 -20.36427826 69.62083008 -20.36479187 68.58837891 C-20.36245553 66.4736126 -20.35275303 64.35884329 -20.33618164 62.24414062 C-20.31258369 59.01146517 -20.31562503 55.77961477 -20.32226562 52.546875 C-20.31668864 50.48957843 -20.30957863 48.43228532 -20.30078125 46.375 C-20.30169266 45.41029785 -20.30260406 44.4455957 -20.30354309 43.45166016 C-20.25537462 38.88122819 -20.1932744 35.13878902 -18 31 C-17.34 31 -16.68 31 -16 31 C-15.8453125 29.7625 -15.8453125 29.7625 -15.6875 28.5 C-14.88353944 24.40710988 -13.53647842 20.87459775 -12 17 C-11.34 17 -10.68 17 -10 17 C-9.67 15.35 -9.34 13.7 -9 12 C-8.34 12 -7.68 12 -7 12 C-6.67 10.02 -6.34 8.04 -6 6 C-5.34 6 -4.68 6 -4 6 C-3.67 5.01 -3.34 4.02 -3 3 C-2.34 3 -1.68 3 -1 3 C-0.67 2.01 -0.34 1.02 0 0 Z M8 12 C7.67 13.65 7.34 15.3 7 17 C6.34 17 5.68 17 5 17 C4.67 18.98 4.34 20.96 4 23 C3.34 23 2.68 23 2 23 C1.67 24.65 1.34 26.3 1 28 C0.34 28 -0.32 28 -1 28 C-1.12375 28.969375 -1.2475 29.93875 -1.375 30.9375 C-1.58125 31.948125 -1.7875 32.95875 -2 34 C-2.66 34.33 -3.32 34.66 -4 35 C5.9 35 15.8 35 26 35 C26 27.41 26 19.82 26 12 C20.06 12 14.12 12 8 12 Z M39 12 C39 19.59 39 27.18 39 35 C48.9 35 58.8 35 69 35 C68.34 34.67 67.68 34.34 67 34 C66.375 30.9375 66.375 30.9375 66 28 C65.34 28 64.68 28 64 28 C63.67 26.35 63.34 24.7 63 23 C62.34 23 61.68 23 61 23 C60.67 21.02 60.34 19.04 60 17 C59.34 17 58.68 17 58 17 C57.67 15.35 57.34 13.7 57 12 C51.06 12 45.12 12 39 12 Z M1 69 C1 69.99 1 70.98 1 72 C0.34 72 -0.32 72 -1 72 C-1 74.64 -1 77.28 -1 80 C-0.34 80 0.32 80 1 80 C1.33 81.32 1.66 82.64 2 84 C2.99 84 3.98 84 5 84 C5 84.66 5 85.32 5 86 C7.64 86 10.28 86 13 86 C13 85.34 13 84.68 13 84 C13.61875 83.896875 14.2375 83.79375 14.875 83.6875 C17.36526484 83.12474627 17.36526484 83.12474627 19 80 C19.58070527 74.18051663 19.58070527 74.18051663 17.125 69.0625 C13.82784573 65.86232086 11.56201966 65.71898339 6.9765625 65.77734375 C4.23542414 66.08612811 2.82197899 66.95027363 1 69 Z M71 69 C71 69.99 71 70.98 71 72 C70.34 72 69.68 72 69 72 C69 74.64 69 77.28 69 80 C69.66 80 70.32 80 71 80 C71.33 81.32 71.66 82.64 72 84 C72.99 84 73.98 84 75 84 C75 84.66 75 85.32 75 86 C77.64 86 80.28 86 83 86 C83 85.34 83 84.68 83 84 C83.61875 83.896875 84.2375 83.79375 84.875 83.6875 C87.36526484 83.12474627 87.36526484 83.12474627 89 80 C89.58070527 74.18051663 89.58070527 74.18051663 87.125 69.0625 C83.82784573 65.86232086 81.56201966 65.71898339 76.9765625 65.77734375 C74.23542414 66.08612811 72.82197899 66.95027363 71 69 Z " fill="#FFFFFF" transform="translate(20,23)"/>
</svg>
