<?xml version="1.0" encoding="UTF-8"?>
<svg version="1.1" xmlns="http://www.w3.org/2000/svg" width="141" height="141">
<path d="M0 0 C5.28 0 10.56 0 16 0 C16.495 5.445 16.495 5.445 17 11 C18.2375 11.0825 19.475 11.165 20.75 11.25 C23.98882964 11.63475459 24.87907883 11.90024003 27.5 14.0625 C27.995 14.701875 28.49 15.34125 29 16 C29.53625 15.67 30.0725 15.34 30.625 15 C33.57217367 13.75908477 35.82934784 13.79321834 39 14 C42.00698793 15.50349397 42.58257459 18.0418948 44 21 C44.33 21.33 44.66 21.66 45 22 C45.4375 24.8125 45.4375 24.8125 45 28 C44.01 28.495 43.02 28.99 42 29.5 C38.64351842 31.71462477 38.64351842 31.71462477 38.6015625 35.359375 C38.62302653 38.92240441 38.74346712 42.44654458 39 46 C40.485 46.495 40.485 46.495 42 47 C42 47.66 42 48.32 42 49 C43.485 49.495 43.485 49.495 45 50 C45.30938864 54.53770004 44.96407351 56.56167472 42 60 C41.67 60.99 41.34 61.98 41 63 C37.6919574 64.6540213 34.20898226 63.46624783 30.62890625 62.9609375 C27.96880482 62.7114467 27.96880482 62.7114467 26.4140625 64.43359375 C25.94742188 64.95050781 25.48078125 65.46742187 25 66 C22.32681142 66.66957496 19.76174963 66.77362708 17 67 C16.67 70.63 16.34 74.26 16 78 C10.72 78 5.44 78 0 78 C-0.33 74.37 -0.66 70.74 -1 67 C-2.258125 66.896875 -3.51625 66.79375 -4.8125 66.6875 C-8.66438568 66.37177167 -8.66438568 66.37177167 -10.4140625 64.43359375 C-11.96880482 62.7114467 -11.96880482 62.7114467 -14.62890625 62.9609375 C-16.08103516 63.16589844 -16.08103516 63.16589844 -17.5625 63.375 C-22.82445141 64.08777429 -22.82445141 64.08777429 -25 63 C-25.625 60.4375 -25.625 60.4375 -26 58 C-26.66 58 -27.32 58 -28 58 C-29.35439668 55.29120665 -29.06501451 52.99066732 -29 50 C-27.515 49.505 -27.515 49.505 -26 49 C-26 48.34 -26 47.68 -26 47 C-24.515 46.505 -24.515 46.505 -23 46 C-22.65975896 41.2870315 -22.44250366 36.70045932 -23 32 C-25.84730711 29.43319686 -25.84730711 29.43319686 -29 28 C-29.45067148 24.78091798 -29.455276 22.91055201 -28 20 C-27.34 20 -26.68 20 -26 20 C-25.87625 19.195625 -25.7525 18.39125 -25.625 17.5625 C-25.315625 16.2940625 -25.315625 16.2940625 -25 15 C-22.50157063 13.75078531 -21.24449196 14.07661713 -18.5 14.4375 C-15.25897568 14.85949355 -15.25897568 14.85949355 -12 15 C-11.62875 14.525625 -11.2575 14.05125 -10.875 13.5625 C-7.89821065 11.08184221 -4.81097735 11.31237519 -1 11 C-0.67 7.37 -0.34 3.74 0 0 Z M-1 34 C-1.33 34.33 -1.66 34.66 -2 35 C-2.43861944 40.47482994 -2.43861944 40.47482994 -0.6875 45.5 C0.99740483 47.33218192 0.99740483 47.33218192 4 47 C4 47.66 4 48.32 4 49 C6.64 49 9.28 49 12 49 C12 48.34 12 47.68 12 47 C12.61875 46.896875 13.2375 46.79375 13.875 46.6875 C16.36526484 46.12474627 16.36526484 46.12474627 18 43 C18.45914018 38.94414513 18.45914018 38.94414513 18 35 C15.70800597 32.03949126 15.70800597 32.03949126 13 30 C12.67 29.67 12.34 29.34 12 29 C5.59532469 28.35953247 3.2245739 28.75128698 -1 34 Z " fill="#FFFFFF" transform="translate(39,52)"/>
<path d="M0 0 C5.28 0 10.56 0 16 0 C16.495 3.96 16.495 3.96 17 8 C19.475 8.495 19.475 8.495 22 9 C22 9.66 22 10.32 22 11 C22.99 11 23.98 11 25 11 C25 10.34 25 9.68 25 9 C27.31 9 29.62 9 32 9 C32.495 11.475 32.495 11.475 33 14 C33.66 14 34.32 14 35 14 C38 19.625 38 19.625 38 23 C37.34 23 36.68 23 36 23 C36 23.66 36 24.32 36 25 C35.01 25.33 34.02 25.66 33 26 C33 29.3 33 32.6 33 36 C34.65 36.33 36.3 36.66 38 37 C38 38.32 38 39.64 38 41 C37.34 41 36.68 41 36 41 C35.67 42.98 35.34 44.96 35 47 C34.34 47 33.68 47 33 47 C32.67 48.32 32.34 49.64 32 51 C28.04 51 24.08 51 20 51 C20 51.66 20 52.32 20 53 C19.01 53 18.02 53 17 53 C16.67 55.31 16.34 57.62 16 60 C10.72 60 5.44 60 0 60 C-0.33 57.69 -0.66 55.38 -1 53 C-1.99 53 -2.98 53 -4 53 C-4 52.34 -4 51.68 -4 51 C-4.83144531 51.04640625 -5.66289063 51.0928125 -6.51953125 51.140625 C-7.60621094 51.17671875 -8.69289063 51.2128125 -9.8125 51.25 C-10.89144531 51.29640625 -11.97039062 51.3428125 -13.08203125 51.390625 C-16 51 -16 51 -17.84375 49.1875 C-19.27211336 46.48519095 -19.65675756 44.02053348 -20 41 C-20.66 41 -21.32 41 -22 41 C-22 39.68 -22 38.36 -22 37 C-20.02 36.505 -20.02 36.505 -18 36 C-18 35.34 -18 34.68 -18 34 C-17.34 34 -16.68 34 -16 34 C-16 31.36 -16 28.72 -16 26 C-17.32 25.67 -18.64 25.34 -20 25 C-20 24.34 -20 23.68 -20 23 C-20.66 23 -21.32 23 -22 23 C-22 21.68 -22 20.36 -22 19 C-21.34 19 -20.68 19 -20 19 C-19.7834375 17.8553125 -19.7834375 17.8553125 -19.5625 16.6875 C-19 14 -19 14 -18 11 C-17.34 11 -16.68 11 -16 11 C-16 10.34 -16 9.68 -16 9 C-13.69 9 -11.38 9 -9 9 C-9 9.66 -9 10.32 -9 11 C-8.236875 10.505 -7.47375 10.01 -6.6875 9.5 C-4 8 -4 8 -1 8 C-0.67 5.36 -0.34 2.72 0 0 Z M1.5 23.5 C-0.73587506 27.22645843 -0.41151261 29.67911757 0 34 C0.99 35.485 0.99 35.485 2 37 C2.66 37 3.32 37 4 37 C4 37.66 4 38.32 4 39 C9.71435517 39.63685689 9.71435517 39.63685689 14.5 37 C16.57342659 32.85314682 16.58651804 30.61882953 16 26 C14.66666667 23.33333333 14.66666667 23.33333333 12 22 C7.97901723 21.208987 5.03588973 21.37846616 1.5 23.5 Z " fill="#FFFFFF" transform="translate(92,11)"/>
</svg>
