<?xml version="1.0" encoding="UTF-8"?>
<svg version="1.1" xmlns="http://www.w3.org/2000/svg" width="141" height="141">
<path d="M0 0 C1.37668006 0.00679606 2.7533718 0.01151426 4.13006592 0.01425171 C7.73986779 0.02761715 11.34867576 0.07185311 14.95812988 0.12182617 C17.91109306 0.15732361 20.86395799 0.17032247 23.81709671 0.18224525 C27.33645999 0.19701497 30.85571803 0.22223116 34.375 0.25 C35.04709755 0.25491077 35.7191951 0.25982155 36.41165924 0.26488113 C38.30737391 0.2811287 40.20301234 0.30564418 42.09863281 0.33056641 C43.71696014 0.34985703 43.71696014 0.34985703 45.36798096 0.36953735 C47.921875 0.5234375 47.921875 0.5234375 49.921875 1.5234375 C49.99782313 8.73162095 50.05043178 15.93970155 50.08666992 23.14819336 C50.10177381 25.60135758 50.12225821 28.05449474 50.14819336 30.50756836 C50.18450557 34.02985305 50.20158536 37.55178131 50.21484375 41.07421875 C50.23032761 42.17429764 50.24581146 43.27437653 50.26176453 44.40779114 C50.26199112 45.42862289 50.26221771 46.44945465 50.26245117 47.5012207 C50.27244392 48.85024223 50.27244392 48.85024223 50.28263855 50.22651672 C49.84576644 53.00800789 49.10075472 53.80327359 46.921875 55.5234375 C44.49186254 57.14344581 42.53203989 58.3878453 39.671875 59.0234375 C38.805625 59.2709375 38.805625 59.2709375 37.921875 59.5234375 C37.591875 60.5134375 37.261875 61.5034375 36.921875 62.5234375 C36.261875 62.5234375 35.601875 62.5234375 34.921875 62.5234375 C34.921875 63.1834375 34.921875 63.8434375 34.921875 64.5234375 C33.436875 65.0184375 33.436875 65.0184375 31.921875 65.5234375 C31.426875 66.0184375 30.931875 66.5134375 30.421875 67.0234375 C28.921875 68.5234375 28.921875 68.5234375 25.921875 69.5234375 C25.591875 70.1834375 25.261875 70.8434375 24.921875 71.5234375 C12.051875 71.5234375 -0.818125 71.5234375 -14.078125 71.5234375 C-14.078125 70.8634375 -14.078125 70.2034375 -14.078125 69.5234375 C-14.62597656 69.4409375 -15.17382812 69.3584375 -15.73828125 69.2734375 C-18.84917905 68.27628829 -20.91791248 66.49727605 -23.515625 64.5234375 C-29.23494477 60.57689582 -33.58015453 59.61634613 -40.4609375 59.55859375 C-43.078125 59.5234375 -43.078125 59.5234375 -45.078125 58.5234375 C-45.078125 43.6734375 -45.078125 28.8234375 -45.078125 13.5234375 C-44.418125 13.5234375 -43.758125 13.5234375 -43.078125 13.5234375 C-43.078125 12.8634375 -43.078125 12.2034375 -43.078125 11.5234375 C-42.24619629 11.51727417 -42.24619629 11.51727417 -41.39746094 11.51098633 C-38.873281 11.47799569 -36.35149804 11.40735372 -33.828125 11.3359375 C-32.51908203 11.32723633 -32.51908203 11.32723633 -31.18359375 11.31835938 C-25.94693985 11.23844195 -25.94693985 11.23844195 -21.84375 8.28515625 C-21.26109375 7.37378906 -20.6784375 6.46242188 -20.078125 5.5234375 C-14.51311996 -1.06307734 -8.1585442 -0.14022634 0 0 Z M6.921875 15.5234375 C6.591875 17.1734375 6.261875 18.8234375 5.921875 20.5234375 C5.261875 20.5234375 4.601875 20.5234375 3.921875 20.5234375 C3.591875 22.1734375 3.261875 23.8234375 2.921875 25.5234375 C2.261875 25.5234375 1.601875 25.5234375 0.921875 25.5234375 C-0.33477478 28.42944011 -1.078125 30.31948334 -1.078125 33.5234375 C-2.068125 33.8534375 -3.058125 34.1834375 -4.078125 34.5234375 C-4.078125 35.5134375 -4.078125 36.5034375 -4.078125 37.5234375 C-4.738125 37.5234375 -5.398125 37.5234375 -6.078125 37.5234375 C-6.408125 38.8434375 -6.738125 40.1634375 -7.078125 41.5234375 C-3.778125 41.5234375 -0.478125 41.5234375 2.921875 41.5234375 C2.921875 46.1434375 2.921875 50.7634375 2.921875 55.5234375 C6.221875 51.95677083 6.221875 51.95677083 5.921875 48.5234375 C6.581875 48.5234375 7.241875 48.5234375 7.921875 48.5234375 C8.251875 47.5334375 8.581875 46.5434375 8.921875 45.5234375 C9.581875 45.1934375 10.241875 44.8634375 10.921875 44.5234375 C11.57959928 41.49409259 11.57959928 41.49409259 11.921875 38.5234375 C12.581875 38.5234375 13.241875 38.5234375 13.921875 38.5234375 C14.251875 36.8734375 14.581875 35.2234375 14.921875 33.5234375 C15.581875 33.5234375 16.241875 33.5234375 16.921875 33.5234375 C16.921875 32.5334375 16.921875 31.5434375 16.921875 30.5234375 C13.951875 30.5234375 10.981875 30.5234375 7.921875 30.5234375 C7.921875 25.5734375 7.921875 20.6234375 7.921875 15.5234375 C7.591875 15.5234375 7.261875 15.5234375 6.921875 15.5234375 Z " fill="#FFFFFF" transform="translate(68.078125,46.4765625)"/>
<path d="M0 0 C15.84 0 31.68 0 48 0 C48 4.29 48 8.58 48 13 C42.39 13 36.78 13 31 13 C31.020625 14.794375 31.04125 16.58875 31.0625 18.4375 C31.0838122 20.29166122 31.07226502 22.14712498 31 24 C30 25 30 25 27.27734375 25.09765625 C24.18489583 25.06510417 21.09244792 25.03255208 18 25 C18 21.04 18 17.08 18 13 C12.06 13 6.12 13 0 13 C0 8.71 0 4.42 0 0 Z " fill="#FFFFFF" transform="translate(58,11)"/>
<path d="M0 0 C3.96 0 7.92 0 12 0 C12 12.21 12 24.42 12 37 C8.04 37 4.08 37 0 37 C0 24.79 0 12.58 0 0 Z " fill="#FFFFFF" transform="translate(129,52)"/>
<path d="M0 0 C3.96 0 7.92 0 12 0 C12 9.9 12 19.8 12 30 C8.04 30 4.08 30 0 30 C0 20.1 0 10.2 0 0 Z " fill="#FFFFFF" transform="translate(0,64)"/>
</svg>
