<?xml version="1.0" encoding="UTF-8"?>
<svg version="1.1" xmlns="http://www.w3.org/2000/svg" width="135" height="135">
<path d="M0 0 C5.24583968 3.21173858 7.38163909 9.21368167 9 15 C9.10546875 17.8125 9.10546875 17.8125 9 20 C9.66 20 10.32 20 11 20 C11.33 22.31 11.66 24.62 12 27 C29.49 27 46.98 27 65 27 C65.33 24.69 65.66 22.38 66 20 C66.66 20 67.32 20 68 20 C68.0825 18.865625 68.165 17.73125 68.25 16.5625 C68.84563714 11.5929304 70.78762273 7.4453348 73 3 C73.66 3 74.32 3 75 3 C75 2.34 75 1.68 75 1 C77.85195222 -0.42597611 80.32461175 -0.1320252 83.5 -0.125 C84.6653125 -0.12757812 85.830625 -0.13015625 87.03125 -0.1328125 C90 0 90 0 92 1 C92 1.66 92 2.32 92 3 C92.66 3 93.32 3 94 3 C95.47899501 5.95799003 95.13178874 8.6483576 95.125 11.9375 C95.12886719 13.80728516 95.12886719 13.80728516 95.1328125 15.71484375 C95 19 95 19 94 22 C93.34 22 92.68 22 92 22 C91.9175 22.928125 91.835 23.85625 91.75 24.8125 C91.01757075 30.12534498 88.93313849 35.02778798 87 40 C86.34 40 85.68 40 85 40 C84.7834375 41.175625 84.7834375 41.175625 84.5625 42.375 C84 45 84 45 83 47 C82.34 47 81.68 47 81 47 C81 47.66 81 48.32 81 49 C78.09399739 50.25664978 76.20395416 51 73 51 C73 54.96 73 58.92 73 63 C69.04 63 65.08 63 61 63 C61 59.04 61 55.08 61 51 C46.15 51 31.3 51 16 51 C16 54.96 16 58.92 16 63 C7.50390625 63.09765625 7.50390625 63.09765625 5 63 C4 62 4 62 3.90234375 59.49609375 C3.91394531 58.48675781 3.92554687 57.47742188 3.9375 56.4375 C3.94652344 55.42558594 3.95554687 54.41367188 3.96484375 53.37109375 C3.97644531 52.58863281 3.98804687 51.80617187 4 51 C1.36 50.34 -1.28 49.68 -4 49 C-4 48.34 -4 47.68 -4 47 C-4.66 47 -5.32 47 -6 47 C-7.4606285 44.35261084 -8 43.10551666 -8 40 C-8.66 40 -9.32 40 -10 40 C-10.84124316 37.75267898 -11.67314832 35.50261215 -12.5 33.25 C-12.73847656 32.61578125 -12.97695313 31.9815625 -13.22265625 31.328125 C-14.44801758 27.96713393 -15 25.63128413 -15 22 C-15.66 22 -16.32 22 -17 22 C-18.17245774 18.48262679 -18.13266285 15.6424868 -18.125 11.9375 C-18.12757812 10.68839844 -18.13015625 9.43929687 -18.1328125 8.15234375 C-18 5 -18 5 -17 3 C-16.34 3 -15.68 3 -15 3 C-15 2.34 -15 1.68 -15 1 C-10.55507807 -1.22246097 -4.82702086 -0.50431561 0 0 Z " fill="#FFFFFF" transform="translate(29,56)"/>
<path d="M0 0 C0.96465179 -0.01283524 1.92930359 -0.02567047 2.92318726 -0.03889465 C4.48415634 -0.04997505 4.48415634 -0.04997505 6.07666016 -0.0612793 C7.14816315 -0.06935104 8.21966614 -0.07742279 9.32363892 -0.08573914 C11.59155664 -0.09957281 13.85949513 -0.11029817 16.12744141 -0.11816406 C19.59528952 -0.13539651 23.06218913 -0.17929236 26.52978516 -0.22338867 C28.73290315 -0.23351401 30.93602924 -0.24203061 33.13916016 -0.2487793 C34.17575775 -0.26628738 35.21235535 -0.28379547 36.28036499 -0.30183411 C40.80658585 -0.28819624 43.48242435 -0.27448753 47.43457031 2.07861328 C49.24072266 4.17700195 49.24072266 4.17700195 49.24072266 6.17700195 C50.23072266 6.50700195 51.22072266 6.83700195 52.24072266 7.17700195 C52.24072266 8.16700195 52.24072266 9.15700195 52.24072266 10.17700195 C52.90072266 10.17700195 53.56072266 10.17700195 54.24072266 10.17700195 C54.24072266 16.11700195 54.24072266 22.05700195 54.24072266 28.17700195 C52.59072266 28.83700195 50.94072266 29.49700195 49.24072266 30.17700195 C47.86882438 33.20682501 47.86882438 33.20682501 47.24072266 36.17700195 C46.58072266 36.17700195 45.92072266 36.17700195 45.24072266 36.17700195 C45.15822266 36.96075195 45.07572266 37.74450195 44.99072266 38.55200195 C44.3262547 41.76359709 43.42882423 44.38528172 42.19384766 47.40356445 C41.82936523 48.29897949 41.46488281 49.19439453 41.08935547 50.11694336 C40.80930664 50.7967627 40.52925781 51.47658203 40.24072266 52.17700195 C34.5807422 52.22635121 28.9208863 52.26269724 23.26074219 52.28686523 C21.33428771 52.29693777 19.40784858 52.31059639 17.48144531 52.32788086 C14.71627014 52.35207436 11.95129666 52.36347231 9.18603516 52.37231445 C8.32140656 52.38263702 7.45677795 52.39295959 6.56594849 52.40359497 C4.45618745 52.40399301 2.34691547 52.29965438 0.24072266 52.17700195 C-2.12703456 49.80924474 -2.7582423 47.87988857 -3.88427734 44.73950195 C-4.23748047 43.77141602 -4.59068359 42.80333008 -4.95458984 41.8059082 C-5.75927734 39.17700195 -5.75927734 39.17700195 -5.75927734 36.17700195 C-6.41927734 36.17700195 -7.07927734 36.17700195 -7.75927734 36.17700195 C-7.98615234 35.22825195 -8.21302734 34.27950195 -8.44677734 33.30200195 C-8.87990234 32.27075195 -9.31302734 31.23950195 -9.75927734 30.17700195 C-12.23427734 29.18700195 -12.23427734 29.18700195 -14.75927734 28.17700195 C-14.75927734 22.23700195 -14.75927734 16.29700195 -14.75927734 10.17700195 C-14.09927734 10.17700195 -13.43927734 10.17700195 -12.75927734 10.17700195 C-12.42927734 8.85700195 -12.09927734 7.53700195 -11.75927734 6.17700195 C-11.09927734 6.17700195 -10.43927734 6.17700195 -9.75927734 6.17700195 C-9.35708984 4.97043945 -9.35708984 4.97043945 -8.94677734 3.73950195 C-8.55490234 2.89387695 -8.16302734 2.04825195 -7.75927734 1.17700195 C-4.87801477 0.2165811 -2.99764815 0.03476869 0 0 Z " fill="#FFFFFF" transform="translate(47.75927734375,21.822998046875)"/>
</svg>
