<?xml version="1.0" encoding="UTF-8"?>
<svg version="1.1" xmlns="http://www.w3.org/2000/svg" width="144" height="144">
<path d="M0 0 C0.72445312 -0.00386719 1.44890625 -0.00773438 2.1953125 -0.01171875 C5.39282879 -0.00581927 7.94582607 0.10694202 11 1.125 C11.495 2.115 11.495 2.115 12 3.125 C12.99 3.455 13.98 3.785 15 4.125 C15 5.115 15 6.105 15 7.125 C15.66 7.125 16.32 7.125 17 7.125 C18.2062252 10.74367559 18.10816918 14.05006251 18.0625 17.8125 C18.05798828 18.51439453 18.05347656 19.21628906 18.04882812 19.93945312 C18.03706927 21.66800538 18.01913454 23.39651365 18 25.125 C18.99 25.125 19.98 25.125 21 25.125 C21 25.785 21 26.445 21 27.125 C21.66 27.125 22.32 27.125 23 27.125 C23.91166194 29.85998581 24.1263302 31.46014607 24.12939453 34.2734375 C24.13254669 35.10439941 24.13569885 35.93536133 24.13894653 36.79150391 C24.1369223 37.68530762 24.13489807 38.57911133 24.1328125 39.5 C24.13376923 40.42087402 24.13472595 41.34174805 24.13571167 42.29052734 C24.1363921 44.23730538 24.13454734 46.1840857 24.13037109 48.13085938 C24.12502093 51.11333301 24.13032071 54.09565605 24.13671875 57.078125 C24.13605794 58.96875033 24.13477673 60.85937557 24.1328125 62.75 C24.13483673 63.64380371 24.13686096 64.53760742 24.13894653 65.45849609 C24.13421829 66.70493896 24.13421829 66.70493896 24.12939453 67.9765625 C24.12859894 68.70697754 24.12780334 69.43739258 24.12698364 70.18994141 C24 72.125 24 72.125 23 75.125 C20.4375 76.3125 20.4375 76.3125 18 77.125 C18.00222061 77.68210159 18.00444122 78.23920319 18.00672913 78.81318665 C18.02882875 84.60421102 18.04392621 90.39522343 18.05493164 96.1862793 C18.05996472 98.34839362 18.06679169 100.51050453 18.07543945 102.67260742 C18.08754979 105.77784059 18.09323852 108.8830288 18.09765625 111.98828125 C18.10281754 112.95711746 18.10797882 113.92595367 18.11329651 114.92414856 C18.11337204 115.8248558 18.11344757 116.72556305 18.11352539 117.65356445 C18.115746 118.44632278 18.11796661 119.23908112 18.12025452 120.05586243 C18 122.125 18 122.125 17 125.125 C16.34 125.125 15.68 125.125 15 125.125 C15 126.115 15 127.105 15 128.125 C14.01 128.455 13.02 128.785 12 129.125 C11.67 129.785 11.34 130.445 11 131.125 C7.29553447 132.35982184 3.8556992 132.27058202 0 132.25 C-1.08667969 132.25580078 -1.08667969 132.25580078 -2.1953125 132.26171875 C-5.39282879 132.25581927 -7.94582607 132.14305798 -11 131.125 C-11.33 130.465 -11.66 129.805 -12 129.125 C-12.99 128.795 -13.98 128.465 -15 128.125 C-15 127.135 -15 126.145 -15 125.125 C-15.66 125.125 -16.32 125.125 -17 125.125 C-17.94337376 122.29487873 -18.12172829 120.58200082 -18.11352539 117.65356445 C-18.11344986 116.75285721 -18.11337433 115.85214996 -18.11329651 114.92414856 C-18.10813522 113.95531235 -18.10297394 112.98647614 -18.09765625 111.98828125 C-18.0962413 110.99370407 -18.09482635 109.99912689 -18.09336853 108.97441101 C-18.08776761 105.79541018 -18.07521496 102.61647957 -18.0625 99.4375 C-18.05748512 97.28320414 -18.05292219 95.12890718 -18.04882812 92.97460938 C-18.03779788 87.69138226 -18.02105886 82.40819615 -18 77.125 C-18.804375 76.856875 -19.60875 76.58875 -20.4375 76.3125 C-21.283125 75.920625 -22.12875 75.52875 -23 75.125 C-23.91166194 72.39001419 -24.1263302 70.78985393 -24.12939453 67.9765625 C-24.13254669 67.14560059 -24.13569885 66.31463867 -24.13894653 65.45849609 C-24.1369223 64.56469238 -24.13489807 63.67088867 -24.1328125 62.75 C-24.13376923 61.82912598 -24.13472595 60.90825195 -24.13571167 59.95947266 C-24.1363921 58.01269462 -24.13454734 56.0659143 -24.13037109 54.11914062 C-24.12502093 51.13666699 -24.13032071 48.15434395 -24.13671875 45.171875 C-24.13605794 43.28124967 -24.13477673 41.39062443 -24.1328125 39.5 C-24.13483673 38.60619629 -24.13686096 37.71239258 -24.13894653 36.79150391 C-24.13579437 35.96054199 -24.13264221 35.12958008 -24.12939453 34.2734375 C-24.12859894 33.54302246 -24.12780334 32.81260742 -24.12698364 32.06005859 C-24 30.125 -24 30.125 -23 27.125 C-22.34 27.125 -21.68 27.125 -21 27.125 C-21 26.465 -21 25.805 -21 25.125 C-20.01 25.125 -19.02 25.125 -18 25.125 C-18.01160156 24.07699219 -18.02320313 23.02898438 -18.03515625 21.94921875 C-18.04453655 20.57031428 -18.0536365 19.19140789 -18.0625 17.8125 C-18.07087891 17.12220703 -18.07925781 16.43191406 -18.08789062 15.72070312 C-18.10307906 12.5766975 -18.00193327 10.13079981 -17 7.125 C-16.34 7.125 -15.68 7.125 -15 7.125 C-15 6.135 -15 5.145 -15 4.125 C-14.01 3.795 -13.02 3.465 -12 3.125 C-11.67 2.465 -11.34 1.805 -11 1.125 C-7.29553447 -0.10982184 -3.8556992 -0.02058202 0 0 Z M-4 15.125 C-4.16666667 18.125 -4.16666667 18.125 -4 21.125 C-2.88163776 22.46904775 -2.88163776 22.46904775 0 22.25 C2.88163776 22.46904775 2.88163776 22.46904775 4 21.125 C4.16666667 18.125 4.16666667 18.125 4 15.125 C2.88163776 13.78095225 2.88163776 13.78095225 0 14 C-2.88163776 13.78095225 -2.88163776 13.78095225 -4 15.125 Z M-6 78.125 C-6 84.065 -6 90.005 -6 96.125 C-2.04 96.125 1.92 96.125 6 96.125 C6 90.185 6 84.245 6 78.125 C2.04 78.125 -1.92 78.125 -6 78.125 Z M-4 111.125 C-4.16666667 114.125 -4.16666667 114.125 -4 117.125 C-2.88163776 118.46904775 -2.88163776 118.46904775 0 118.25 C2.88163776 118.46904775 2.88163776 118.46904775 4 117.125 C4.16666667 114.125 4.16666667 114.125 4 111.125 C2.88163776 109.78095225 2.88163776 109.78095225 0 110 C-2.88163776 109.78095225 -2.88163776 109.78095225 -4 111.125 Z " fill="#FFFFFF" transform="translate(72,5.875)"/>
</svg>
