<svg width="140" height="140" viewBox="0 0 140 140" fill="none" xmlns="http://www.w3.org/2000/svg">
<path fill-rule="evenodd" clip-rule="evenodd" d="M65 11H56V13L48 14V16H45V20C43.518 20 42.7682 20 42.0647 20.1808C41.3442 20.366 40.6724 20.741 39.3125 21.5L37 23V21H35V23C33.1864 23 32.4692 23 31.8818 23.2761C31.4975 23.4568 31.1688 23.7556 30.625 24.25L29 26C28.767 26.1665 28.5416 26.3259 28.3237 26.4802C25.7195 28.323 24.1719 29.4182 23.1875 32.75L23 35H21V37H23C21.8886 39.0746 21.0065 40.9766 20.375 43.25L20 45H16V48H14L13 56H11V65H14V75H11V84H13L14 92H16V95H20C20 96.4819 20 97.2318 20.1808 97.9353C20.366 98.6558 20.741 99.3276 21.5 100.688L23 103H21V105H23C23.1812 106.178 23.2749 106.787 23.3938 107.39C23.5209 108.036 23.677 108.676 24 110L26 111C26.1836 111.253 26.359 111.498 26.5284 111.734C28.3437 114.267 29.4744 115.845 32.75 116.812L35 117V119H37V117C39.7163 117.905 42.3477 118.925 45 120V124H48V126L56 127V129H65V126H75V129H84V127L92 126V124H95V120C95.7435 120 96.2107 120 96.6647 119.923C97.4319 119.793 98.1618 119.442 100.125 118.5L103 117V119H105V117C106.814 117 107.531 117 108.118 116.724C108.502 116.543 108.831 116.244 109.375 115.75L111 114C111.233 113.834 111.458 113.674 111.676 113.52C114.281 111.677 115.828 110.582 116.812 107.25L117 105H119V103H117C117.905 100.284 118.925 97.6523 120 95H124V92H126L127 84H129V75H126V65H129V56H127L126 48H124V45H120C120 44.2565 120 43.7893 119.923 43.3353C119.793 42.5681 119.442 41.8382 118.5 39.875L117 37H119V35H117C116.819 33.8221 116.725 33.2134 116.606 32.6097C116.479 31.9641 116.323 31.3242 116 30L114 29C113.816 28.7467 113.641 28.5021 113.472 28.2657C111.656 25.7328 110.526 24.1553 107.25 23.1875L105 23V21H103V23C100.284 22.0946 97.6523 21.0753 95 20V16H92V14L84 13V11H75V14H65V11ZM70 112C93.196 112 112 93.196 112 70C112 46.804 93.196 28 70 28C46.804 28 28 46.804 28 70C28 93.196 46.804 112 70 112Z" fill="white"/>
<ellipse cx="70.5" cy="43.5" rx="2.5" ry="13.5" fill="white"/>
<ellipse cx="44.7077" cy="64.5257" rx="14.5" ry="2.5" transform="rotate(8.131 44.7077 64.5257)" fill="white"/>
<ellipse cx="95.7131" cy="63.7454" rx="14.5" ry="2.5" transform="rotate(170.966 95.7131 63.7454)" fill="white"/>
<ellipse cx="86.8585" cy="90.9929" rx="14.5" ry="2.5" transform="rotate(-127.775 86.8585 90.9929)" fill="white"/>
<ellipse cx="55.6086" cy="90.1595" rx="14.5" ry="2.5" transform="rotate(-53.6459 55.6086 90.1595)" fill="white"/>
</svg>
