<?xml version="1.0" encoding="UTF-8"?>
<svg version="1.1" xmlns="http://www.w3.org/2000/svg" width="140" height="140">
<path d="M0 0 C2.97 0 5.94 0 9 0 C9 0.99 9 1.98 9 3 C12.3 3 15.6 3 19 3 C19 2.01 19 1.02 19 0 C21.97 0 24.94 0 28 0 C28 0.66 28 1.32 28 2 C30.64 2.33 33.28 2.66 36 3 C36 3.66 36 4.32 36 5 C36.99 5 37.98 5 39 5 C39 6.32 39 7.64 39 9 C41.65228812 10.07525194 44.28368454 11.09456151 47 12 C47 11.34 47 10.68 47 10 C47.66 10 48.32 10 49 10 C49 10.66 49 11.32 49 12 C50.11375 12.0928125 50.11375 12.0928125 51.25 12.1875 C54.83127761 13.24560475 55.84857871 15.03252236 58 18 C58.66 18.33 59.32 18.66 60 19 C60.625 21.5625 60.625 21.5625 61 24 C61.66 24 62.32 24 63 24 C63 24.66 63 25.32 63 26 C62.34 26 61.68 26 61 26 C61.495 26.94875 61.99 27.8975 62.5 28.875 C64 32 64 32 64 34 C65.32 34 66.64 34 68 34 C68 34.99 68 35.98 68 37 C68.66 37 69.32 37 70 37 C70.495 40.96 70.495 40.96 71 45 C71.66 45 72.32 45 73 45 C73 47.97 73 50.94 73 54 C72.01 54 71.02 54 70 54 C70 57.3 70 60.6 70 64 C70.99 64 71.98 64 73 64 C73 66.97 73 69.94 73 73 C72.34 73 71.68 73 71 73 C70.67 75.64 70.34 78.28 70 81 C69.34 81 68.68 81 68 81 C68 81.99 68 82.98 68 84 C66.68 84 65.36 84 64 84 C62.92474806 86.65228812 61.90543849 89.28368454 61 92 C61.66 92 62.32 92 63 92 C63 92.66 63 93.32 63 94 C62.34 94 61.68 94 61 94 C60.938125 94.7425 60.87625 95.485 60.8125 96.25 C59.74571489 99.86065729 58.0175693 100.84459336 55 103 C54.46375 103.5775 53.9275 104.155 53.375 104.75 C52 106 52 106 49 106 C49 106.66 49 107.32 49 108 C48.34 108 47.68 108 47 108 C47 107.34 47 106.68 47 106 C46.05125 106.495 45.1025 106.99 44.125 107.5 C41 109 41 109 39 109 C39 110.32 39 111.64 39 113 C38.01 113 37.02 113 36 113 C36 113.66 36 114.32 36 115 C33.36 115.33 30.72 115.66 28 116 C28 116.66 28 117.32 28 118 C25.03 118 22.06 118 19 118 C19 117.01 19 116.02 19 115 C15.7 115 12.4 115 9 115 C9 115.99 9 116.98 9 118 C6.03 118 3.06 118 0 118 C0 117.34 0 116.68 0 116 C-2.64 115.67 -5.28 115.34 -8 115 C-8 114.34 -8 113.68 -8 113 C-8.99 113 -9.98 113 -11 113 C-11 111.68 -11 110.36 -11 109 C-13.65228812 107.92474806 -16.28368454 106.90543849 -19 106 C-19 106.66 -19 107.32 -19 108 C-19.66 108 -20.32 108 -21 108 C-21 107.34 -21 106.68 -21 106 C-22.11375 105.9071875 -22.11375 105.9071875 -23.25 105.8125 C-26.83127761 104.75439525 -27.84857871 102.96747764 -30 100 C-30.66 99.67 -31.32 99.34 -32 99 C-32.625 96.4375 -32.625 96.4375 -33 94 C-33.66 94 -34.32 94 -35 94 C-35 93.34 -35 92.68 -35 92 C-34.34 92 -33.68 92 -33 92 C-33.495 91.236875 -33.99 90.47375 -34.5 89.6875 C-36 87 -36 87 -36 84 C-37.32 84 -38.64 84 -40 84 C-40 83.01 -40 82.02 -40 81 C-40.66 81 -41.32 81 -42 81 C-42.33 78.36 -42.66 75.72 -43 73 C-43.66 73 -44.32 73 -45 73 C-45 70.03 -45 67.06 -45 64 C-44.01 64 -43.02 64 -42 64 C-42 60.7 -42 57.4 -42 54 C-42.99 54 -43.98 54 -45 54 C-45 51.03 -45 48.06 -45 45 C-44.34 45 -43.68 45 -43 45 C-42.67 42.36 -42.34 39.72 -42 37 C-41.34 37 -40.68 37 -40 37 C-40 36.01 -40 35.02 -40 34 C-38.68 34 -37.36 34 -36 34 C-35.87625 33.4225 -35.7525 32.845 -35.625 32.25 C-34.99351176 29.97664233 -34.11141809 28.0746471 -33 26 C-33.66 26 -34.32 26 -35 26 C-35 25.34 -35 24.68 -35 24 C-34.34 24 -33.68 24 -33 24 C-32.938125 23.2575 -32.87625 22.515 -32.8125 21.75 C-31.74571489 18.13934271 -30.0175693 17.15540664 -27 15 C-26.46375 14.4225 -25.9275 13.845 -25.375 13.25 C-24 12 -24 12 -21 12 C-21 11.34 -21 10.68 -21 10 C-20.34 10 -19.68 10 -19 10 C-19 10.66 -19 11.32 -19 12 C-18.236875 11.505 -17.47375 11.01 -16.6875 10.5 C-14 9 -14 9 -11 9 C-11 7.68 -11 6.36 -11 5 C-10.01 5 -9.02 5 -8 5 C-8 4.34 -8 3.68 -8 3 C-5.36 2.67 -2.72 2.34 0 2 C0 1.34 0 0.68 0 0 Z M4 33 C4 33.66 4 34.32 4 35 C3.46375 35.0825 2.9275 35.165 2.375 35.25 C-3.5435266 37.1190084 -7.04216894 40.65315155 -10 46 C-10 46.99 -10 47.98 -10 49 C-10.66 49 -11.32 49 -12 49 C-13.37004923 55.85024615 -13.37004923 62.14975385 -12 69 C-11.34 69 -10.68 69 -10 69 C-9.9175 69.53625 -9.835 70.0725 -9.75 70.625 C-7.8809916 76.5435266 -4.34684845 80.04216894 1 83 C1.99 83 2.98 83 4 83 C4 83.66 4 84.32 4 85 C10.85024615 86.37004923 17.14975385 86.37004923 24 85 C24 84.34 24 83.68 24 83 C25.98 82.505 25.98 82.505 28 82 C28 81.34 28 80.68 28 80 C28.721875 79.979375 29.44375 79.95875 30.1875 79.9375 C34.24290207 78.58569931 36.07971585 75.74251123 38 72 C38 71.01 38 70.02 38 69 C38.66 69 39.32 69 40 69 C41.37004923 62.14975385 41.37004923 55.85024615 40 49 C39.34 49 38.68 49 38 49 C37.9175 48.278125 37.835 47.55625 37.75 46.8125 C36.47944299 42.0479112 33.81032082 39.61187491 29.9375 36.6875 C27.13106516 34.75093777 27.13106516 34.75093777 24 35 C24 34.34 24 33.68 24 33 C17.14975385 31.62995077 10.85024615 31.62995077 4 33 Z " fill="#FFFFFF" transform="translate(56,11)"/>
</svg>
