<svg width="821" height="821" viewBox="0 0 821 821" fill="none" xmlns="http://www.w3.org/2000/svg">
<rect width="821" height="821" rx="378" fill="#38E393"/>
<path fill-rule="evenodd" clip-rule="evenodd" d="M177.743 242.982L197.099 253.733L193.619 334.232C193.619 334.232 179.641 364.293 179.641 381.75V450.325C186.758 438.513 196.791 428.655 208.739 421.744V385.94C208.739 370.112 215.734 362.162 215.734 362.162L587.014 375.135L595.452 411.276C607.132 412.478 618.085 416.149 627.775 421.758L616.997 375.571C622.88 375.768 627.751 371.055 627.751 365.173V346.82V321.265C627.751 315.428 624.859 309.996 619.982 306.792C592.63 288.826 501.099 229.569 476.441 224.638C447.343 218.819 330.951 213 301.853 213C282.985 213 222.514 217.894 182.329 221.335C170.911 222.312 167.728 237.418 177.743 242.982ZM510.888 521.405C507.431 512.37 505.539 502.561 505.539 492.31H330.951C330.951 502.561 329.059 512.37 325.602 521.405H510.888ZM231.36 247.188C228.531 247.508 226.395 249.84 226.267 252.682L223.544 315.674C223.125 325.373 230.702 333.551 240.403 333.876L592.642 345.647C595.93 345.756 598.653 343.121 598.653 339.831V331.758C598.653 329.858 597.728 328.08 596.162 327C580.63 316.268 496.711 258.956 467.758 253.219C435.797 246.885 331.166 242.238 301.957 242.167C278.493 242.109 244.006 245.753 231.36 247.188Z" fill="#353535"/>
<path fill-rule="evenodd" clip-rule="evenodd" d="M249.475 544.681C278.404 544.681 301.851 521.234 301.851 492.31C301.851 463.386 278.404 439.94 249.475 439.94C220.545 439.94 197.098 463.386 197.098 492.31C197.098 521.234 220.545 544.681 249.475 544.681ZM249.475 573.776C294.472 573.776 330.949 537.302 330.949 492.31C330.949 447.318 294.472 410.845 249.475 410.845C204.477 410.845 168 447.318 168 492.31C168 537.302 204.477 573.776 249.475 573.776Z" fill="#353535"/>
<path fill-rule="evenodd" clip-rule="evenodd" d="M587.014 544.681C615.943 544.681 639.39 521.234 639.39 492.31C639.39 463.386 615.943 439.94 587.014 439.94C558.084 439.94 534.637 463.386 534.637 492.31C534.637 521.234 558.084 544.681 587.014 544.681ZM587.014 573.776C632.011 573.776 668.488 537.302 668.488 492.31C668.488 447.318 632.011 410.845 587.014 410.845C542.016 410.845 505.539 447.318 505.539 492.31C505.539 537.302 542.016 573.776 587.014 573.776Z" fill="#353535"/>
</svg>
