<svg width="1819" height="205" viewBox="0 0 1819 205" fill="none" xmlns="http://www.w3.org/2000/svg">
<path d="M922.691 58.3933C957.783 58.3933 979.781 76.7231 979.781 106.313V184.869C979.781 190.106 976.901 192.986 971.663 192.986H953.069C947.832 192.986 944.951 190.106 944.951 184.869V175.704C936.833 189.058 921.905 196.39 902.788 196.39C875.29 196.39 858.006 181.464 858.006 157.636C858.006 131.974 878.171 116.001 911.43 116.001C921.905 116.001 932.643 117.572 940.499 120.453V106.836C940.499 94.2672 933.69 86.6735 922.429 86.6735C914.311 86.6735 908.287 90.6013 904.883 96.6239C902.002 100.814 899.645 102.647 894.931 102.123L872.148 98.4569C866.648 97.4095 864.029 93.7435 866.386 88.5065C874.766 69.9149 894.931 58.3933 922.691 58.3933ZM916.93 169.157C931.595 169.157 940.499 160.516 940.499 146.638V141.663C933.952 138.782 926.357 137.211 919.287 137.211C905.931 137.211 897.812 143.234 897.812 153.446C897.812 163.135 904.883 169.157 916.93 169.157ZM1108.62 62.0593C1113.86 62.0593 1117 64.9396 1117 70.1767V184.869C1117 190.106 1113.86 192.986 1108.62 192.986H1090.55C1085.58 192.986 1082.43 190.106 1082.43 184.869V173.871C1074.84 188.273 1060.17 196.39 1040.79 196.39C1013.3 196.39 996.012 179.631 996.012 145.067V70.1767C996.012 64.9396 998.893 62.0593 1004.13 62.0593H1027.7C1032.94 62.0593 1035.82 64.9396 1035.82 70.1767V142.186C1035.82 155.541 1043.68 163.658 1056.25 163.658C1068.82 163.658 1076.93 154.494 1077.2 139.83L1076.93 70.1767C1076.93 64.9396 1080.08 62.0593 1085.05 62.0593H1108.62ZM1132.55 127.261C1132.55 84.8405 1157.43 58.3933 1196.98 58.3933C1227.35 58.3933 1249.09 73.5808 1256.95 98.4569C1258.78 103.694 1255.9 107.098 1250.66 108.145L1229.45 111.55C1224.47 112.335 1221.59 110.24 1219.5 105.527C1215.83 96.8858 1209.28 90.6013 1198.81 90.6013C1183.88 90.6013 1174.45 104.48 1174.45 127.261C1174.45 149.78 1183.62 163.92 1199.33 163.92C1209.55 163.92 1216.88 158.421 1220.54 146.9C1222.12 141.925 1225.26 139.83 1229.97 140.353L1251.45 143.496C1256.68 144.543 1259.3 147.947 1257.99 153.446C1250.4 180.941 1228.4 196.128 1197.5 196.128C1157.43 196.128 1132.55 169.681 1132.55 127.261ZM1338.46 161.04C1343.69 161.04 1346.84 164.182 1346.84 169.419V185.654C1346.84 190.891 1343.69 194.033 1338.46 194.033H1320.12C1292.63 194.033 1275.6 178.584 1275.6 153.97L1275.34 94.2673H1267.75C1262.51 94.2673 1259.63 91.3869 1259.63 86.1498L1259.37 70.1767C1259.37 64.9396 1262.51 62.0593 1267.49 62.0593H1276.65L1287.39 35.8739C1289.22 31.6843 1292.36 29.8513 1297.08 29.8513H1306.77C1312.01 29.8513 1315.15 32.7317 1315.15 37.9688V62.0593H1335.84C1341.08 62.0593 1343.96 64.9396 1343.96 70.1767V86.1498C1343.96 91.3869 1341.08 94.2673 1335.84 94.2673H1315.41V143.758C1315.41 154.494 1321.96 161.04 1332.17 161.04H1338.46ZM1378.6 45.0388C1366.03 45.0388 1356.08 34.8265 1356.08 22.5194C1356.08 9.95045 1366.03 0 1378.6 0C1390.91 0 1400.86 9.95045 1400.86 22.5194C1400.86 34.8265 1390.91 45.0388 1378.6 45.0388ZM1398.24 184.869C1398.24 190.106 1395.36 192.986 1390.12 192.986H1366.55C1361.32 192.986 1358.44 190.106 1358.44 184.869V70.1767C1358.44 64.9396 1361.32 62.0593 1366.55 62.0593H1390.12C1395.36 62.0593 1398.24 64.9396 1398.24 70.1767V184.869ZM1482.18 196.39C1440.02 196.39 1413.83 169.681 1413.83 127.261C1413.83 85.1024 1440.02 58.3933 1482.18 58.3933C1524.08 58.3933 1550.53 85.1024 1550.53 127.261C1550.53 169.681 1524.08 196.39 1482.18 196.39ZM1482.18 164.182C1498.42 164.182 1508.63 150.042 1508.63 127.261C1508.63 104.741 1498.42 90.3394 1482.18 90.3394C1465.95 90.3394 1455.73 104.741 1455.73 127.261C1455.73 150.042 1465.95 164.182 1482.18 164.182ZM1641.41 58.3933C1669.95 58.3933 1688.29 78.8179 1688.29 110.502V184.869C1688.29 190.106 1685.4 192.986 1680.17 192.986H1656.6C1651.36 192.986 1648.48 190.106 1648.48 184.869V113.644C1648.48 99.7662 1640.1 90.8631 1627.53 90.8631C1614.43 90.8631 1605.79 100.814 1605.53 116.001L1605.79 184.869C1605.79 190.106 1602.91 192.986 1597.67 192.986H1574.1C1568.87 192.986 1565.99 190.106 1565.99 184.869V70.1767C1565.99 64.9396 1568.87 62.0593 1574.1 62.0593H1592.96C1597.94 62.0593 1601.08 64.9396 1601.08 70.1767V82.222C1608.41 67.0345 1622.55 58.3933 1641.41 58.3933ZM1701.71 165.491C1699.35 160.254 1702.23 156.588 1707.73 155.803L1728.42 152.399C1732.87 151.875 1736.01 153.708 1738.63 157.636C1743.08 164.706 1750.68 168.634 1760.37 168.634C1771.1 168.634 1777.91 163.92 1777.91 156.85C1777.91 131.45 1702.23 145.852 1702.23 99.2425C1702.23 73.8427 1724.75 58.3933 1757.49 58.3933C1781.58 58.3933 1802.53 67.2964 1811.96 86.6735C1814.31 91.9106 1811.43 95.8384 1805.93 96.8858L1786.29 100.028C1781.32 100.814 1778.7 98.9806 1776.08 94.791C1772.68 88.7683 1766.65 85.8879 1757.49 85.8879C1747.8 85.8879 1742.04 89.5539 1742.04 94.791C1742.04 116.787 1818.77 106.574 1818.77 154.494C1818.77 180.155 1797.03 196.39 1761.41 196.39C1734.18 196.39 1710.61 187.225 1701.71 165.491Z" fill="#262626"/>
<path fill-rule="evenodd" clip-rule="evenodd" d="M819.991 176.081L823.181 180.19L822.692 182.36L819.991 186.224L818.763 188.639L815.08 192.741L812.868 192.986L810.412 192.741L803.784 188.156L801.823 186.468L800.1 184.775L797.65 182.843L795.683 181.394L793.716 179.462L791.51 178.013L789.054 175.843L787.338 174.15L785.37 172.701L783.159 170.769L781.198 169.562L779.725 171.252L777.758 172.943L776.042 174.874L773.83 176.081L771.374 177.775L769.413 179.462L766.468 180.673L764.257 181.877L761.801 183.571L759.84 184.292L757.139 185.502L754.684 186.707L752.228 187.19L749.772 187.917L747.316 188.4L744.616 189.122L741.426 190.088H738.971L736.759 190.332L734.059 191.054L730.864 190.815L728.164 191.054L725.714 191.537L720.307 191.298H715.157L712.451 191.054L709.506 190.332H706.561L703.861 189.366H701.649L698.46 188.639L696.249 187.673L693.06 186.468L691.093 185.985L688.637 184.292L685.936 183.571L683.481 181.639L681.025 180.673L675.38 175.116L673.663 172.46L672.19 170.769L670.468 168.354L669.24 166.181L668.507 163.766L667.523 160.868L667.279 158.695L666.54 156.039L666.051 152.899L666.295 150.243V144.93L666.79 142.515L667.523 137.203L668.012 134.788L669.24 132.132L669.735 129.959L670.963 127.061L671.946 124.887L673.168 122.473L676.608 117.884L678.08 116.194L679.308 114.262L681.275 112.089L683.481 110.398L684.953 108.708L687.409 107.259L689.131 105.568L691.337 103.637L694.037 102.188L696.004 101.222L698.216 99.2903L700.666 98.3244L703.366 96.8755L705.578 96.151L707.294 95.1851L706.806 94.4606L705.333 92.5287L703.616 89.8724L702.877 87.4575L701.649 85.5256L700.177 83.1107L698.949 80.4544L697.966 78.0395L697.232 75.1416L696.493 72.9683L696.004 70.5534L695.021 68.1385L694.288 64.9998L693.793 60.17L694.037 57.2722L694.532 55.0988L694.776 52.201L695.516 47.3712L696.004 44.2319L697.232 42.0585L699.194 37.2288L699.933 34.3309L701.649 32.6405L703.122 30.2262L705.089 27.8114L706.806 26.3624L708.522 23.9476L710.734 22.0157L712.451 20.8082L714.906 19.3593L717.362 17.6689L720.063 16.4615L722.763 15.4955L725.463 15.0125L728.164 14.288L730.375 13.8051L733.075 13.3221L736.515 12.8391L738.971 12.5977L744.127 13.0806L746.827 12.5977L750.016 13.0806L752.472 13.5636L754.928 14.288L760.573 15.737L763.029 16.4615L764.746 18.1518L767.446 19.3593L769.413 20.8082L772.113 22.2572L773.83 23.9476L775.797 26.1209L777.514 28.2943L778.498 29.7433L780.214 32.1575L780.953 34.5724L782.181 37.2288L783.159 39.4021L783.409 42.3L784.143 44.7149V52.6839L783.409 55.3403L782.67 60.17L781.687 62.8264L780.709 65.2412L779.481 67.1726L778.498 69.3459L777.514 72.2438L776.042 74.4172L774.325 76.3491L772.602 78.0395L771.13 80.2129L769.169 82.3863L766.713 83.5937L764.501 85.7671L762.296 87.216L760.573 89.3894L757.873 90.8383L755.417 92.0457L753.456 93.7362L751.244 95.1851L748.299 96.3925L745.844 97.8414L743.632 99.2903L740.932 100.256L738.232 101.705L737.004 102.43L737.248 102.671L738.971 105.085L741.176 106.776L743.143 108.949L744.86 111.364L748.788 115.228L750.755 116.918L752.228 119.333L754.189 121.265L756.4 123.197L758.367 125.37L760.573 127.061L763.029 128.993L764.501 130.925L768.674 135.03L771.374 136.72L773.097 138.652L775.553 140.583L777.025 142.032L778.253 140.1L780.214 137.928L780.953 135.271L782.181 132.856L783.654 130.2L784.387 127.785L785.865 125.37L786.354 122.956L787.338 119.816L788.071 117.16L790.038 112.813L792.738 111.123L798.139 111.847L800.35 112.813L803.05 113.296L808.695 115.228L809.435 117.401L807.956 123.197L806.979 125.612L805.995 128.268L805.012 130.683L804.523 132.856L803.295 135.754L802.556 138.169L801.328 140.825L800.1 142.998L798.872 145.655L797.4 147.828L796.666 150.001L794.944 152.175L793.227 154.831L792.738 155.314L794.944 156.763L797.155 158.695L801.572 162.076L803.784 164.249L806.484 165.698L808.451 167.389L811.151 169.079L813.357 171.494L815.324 173.184L817.535 174.391L819.991 176.081ZM714.662 57.5137L715.157 55.0988L715.89 50.9935L716.379 48.3372L717.607 45.6808L718.346 43.5074L720.307 41.0925L721.785 39.1607L726.202 35.2969L728.414 34.5724L731.114 33.365L733.32 32.399L736.27 31.6745L738.971 31.916L744.127 31.6745L749.772 32.1575L751.983 33.365L753.944 34.0894L758.856 36.9873L760.329 39.1607L761.312 41.334L762.045 43.5074L763.273 46.4053V51.235L762.045 56.3062L761.312 59.4456L760.084 61.8604L758.612 64.0338L756.889 66.4481L755.172 67.8971L753.211 70.0704L751.489 72.2438L749.527 73.6927L747.072 75.1416L744.616 76.8321L742.649 78.7639L740.443 79.9714L737.743 81.1788L735.531 82.6277L730.131 85.0426L728.164 86.0086L725.714 87.4575L724.974 85.7671L723.258 83.3522L722.274 81.1788L720.802 79.2469L719.574 77.315L718.59 75.1416L717.607 72.7268L716.874 70.7949L716.134 68.1385V66.2072L715.401 63.7923L715.157 61.8604L714.662 57.5137ZM765.974 156.522L765.729 157.005L763.273 158.936L759.345 161.593L756.645 163.283L754.433 164.491L752.228 165.94L750.261 166.664L747.56 167.63L744.86 168.354L742.649 169.32L739.948 169.562L737.248 170.528H735.042L732.342 170.769L730.131 171.252L727.186 171.011L721.785 171.252L719.079 171.011L716.629 170.528H713.19L710.734 170.045L708.034 169.562L705.822 168.837L703.122 167.63L700.916 166.664L695.76 163.766L694.288 161.593L692.565 159.661L691.093 157.488L690.109 155.314L689.131 152.899L688.637 150.243L688.392 148.311L688.637 145.172L689.376 140.583L689.62 137.928L691.093 135.03L691.832 132.856L693.06 130.683L694.776 128.993L696.738 126.578L700.177 123.197L702.877 121.265L705.089 119.816L707.294 118.126L711.717 115.469L713.929 113.779L716.629 112.572L718.835 111.606L719.329 111.364L719.818 112.089L721.535 113.779L723.258 116.194L724.974 117.884L726.941 120.058L729.147 121.748L730.619 123.921L732.342 125.853L734.548 127.785L736.27 129.959L738.726 131.649L740.687 133.822L742.404 135.03L744.371 136.962L748.544 140.825L750.016 142.757L752.228 144.689L754.189 146.138L756.4 148.311L758.117 149.76L762.045 153.624L764.257 155.073L765.974 156.522Z" fill="#4AD493"/>
<mask id="mask0_221_34" style="mask-type:luminance" maskUnits="userSpaceOnUse" x="654" y="0" width="181" height="205">
<path d="M834.82 0.959961H654.412V204.624H834.82V0.959961Z" fill="white"/>
<path fill-rule="evenodd" clip-rule="evenodd" d="M819.991 176.082L823.181 180.19L822.692 182.361L819.991 186.224L818.763 188.639L815.08 192.742L812.868 192.986L810.412 192.742L803.784 188.156L801.823 186.469L800.1 184.775L797.65 182.844L795.683 181.395L793.716 179.463L791.51 178.014L789.054 175.843L787.338 174.15L785.37 172.702L783.159 170.77L781.198 169.562L779.725 171.253L777.758 172.943L776.042 174.875L773.83 176.082L771.374 177.775L769.413 179.463L766.468 180.673L764.257 181.878L761.801 183.571L759.84 184.293L757.139 185.503L754.684 186.707L752.228 187.19L749.772 187.918L747.316 188.401L744.616 189.122L741.426 190.088H738.971L736.759 190.333L734.059 191.054L730.864 190.816L728.164 191.054L725.714 191.537L720.307 191.299H715.157L712.451 191.054L709.506 190.333H706.561L703.861 189.367H701.649L698.46 188.639L696.249 187.673L693.06 186.469L691.093 185.986L688.637 184.293L685.936 183.571L683.481 181.639L681.025 180.673L675.38 175.116L673.663 172.46L672.19 170.77L670.468 168.355L669.24 166.182L668.507 163.767L667.523 160.869L667.279 158.695L666.54 156.039L666.051 152.9L666.295 150.243V144.931L666.79 142.516L667.523 137.204L668.012 134.789L669.24 132.132L669.735 129.959L670.963 127.061L671.946 124.888L673.168 122.473L676.608 117.885L678.08 116.194L679.308 114.262L681.275 112.089L683.481 110.399L684.953 108.708L687.409 107.259L689.131 105.569L691.337 103.637L694.037 102.189L696.004 101.223L698.216 99.2908L700.666 98.3249L703.366 96.876L705.578 96.1515L707.294 95.1856L706.806 94.4611L705.333 92.5292L703.616 89.8728L702.877 87.458L701.649 85.5261L700.177 83.1112L698.949 80.4548L697.966 78.04L697.232 75.1421L696.493 72.9688L696.004 70.5539L695.021 68.139L694.288 65.0003L693.793 60.1705L694.037 57.2727L694.532 55.0993L694.776 52.2014L695.516 47.3717L696.004 44.2324L697.232 42.059L699.194 37.2293L699.933 34.3314L701.649 32.641L703.122 30.2267L705.089 27.8118L706.806 26.3629L708.522 23.948L710.734 22.0161L712.451 20.8087L714.906 19.3598L717.362 17.6694L720.063 16.4619L722.763 15.496L725.463 15.013L728.164 14.2885L730.375 13.8056L733.075 13.3226L736.515 12.8396L738.971 12.5981L744.127 13.0811L746.827 12.5981L750.016 13.0811L752.472 13.5641L754.928 14.2885L760.573 15.7375L763.029 16.4619L764.746 18.1523L767.446 19.3598L769.413 20.8087L772.113 22.2576L773.83 23.948L775.797 26.1214L777.514 28.2948L778.498 29.7437L780.214 32.158L780.953 34.5729L782.181 37.2293L783.159 39.4026L783.409 42.3005L784.143 44.7154V52.6844L783.409 55.3408L782.67 60.1705L781.687 62.8269L780.709 65.2417L779.481 67.1731L778.498 69.3464L777.514 72.2443L776.042 74.4177L774.325 76.3496L772.602 78.04L771.13 80.2133L769.169 82.3868L766.713 83.5942L764.501 85.7676L762.296 87.2165L760.573 89.3899L757.873 90.8388L755.417 92.0462L753.456 93.7366L751.244 95.1856L748.299 96.393L745.844 97.8419L743.632 99.2908L740.932 100.257L738.232 101.706L737.004 102.43L737.248 102.671L738.971 105.086L741.176 106.776L743.143 108.95L744.86 111.365L748.788 115.228L750.755 116.919L752.228 119.334L754.189 121.266L756.4 123.197L758.367 125.371L760.573 127.061L763.029 128.993L764.501 130.925L768.674 135.03L771.374 136.721L773.097 138.653L775.553 140.584L777.025 142.033L778.253 140.101L780.214 137.928L780.953 135.272L782.181 132.857L783.654 130.201L784.387 127.786L785.865 125.371L786.354 122.956L787.338 119.817L788.071 117.16L790.038 112.814L792.738 111.123L798.139 111.848L800.35 112.814L803.05 113.296L808.695 115.228L809.435 117.402L807.956 123.197L806.979 125.612L805.995 128.269L805.012 130.684L804.523 132.857L803.295 135.755L802.556 138.17L801.328 140.825L800.1 142.999L798.872 145.655L797.4 147.829L796.666 150.002L794.944 152.175L793.227 154.832L792.738 155.315L794.944 156.764L797.155 158.695L801.572 162.076L803.784 164.25L806.484 165.699L808.451 167.389L811.151 169.079L813.357 171.494L815.324 173.185L817.535 174.392L819.991 176.082ZM714.662 57.5142L715.157 55.0993L715.89 50.994L716.379 48.3376L717.607 45.6813L718.346 43.5079L720.307 41.093L721.785 39.1612L726.202 35.2974L728.414 34.5729L731.114 33.3655L733.32 32.3995L736.27 31.675L738.971 31.9165L744.127 31.675L749.772 32.158L751.983 33.3655L753.944 34.0899L758.856 36.9877L760.329 39.1612L761.312 41.3345L762.045 43.5079L763.273 46.4057V51.2355L762.045 56.3067L761.312 59.4461L760.084 61.8609L758.612 64.0343L756.889 66.4486L755.172 67.8975L753.211 70.0709L751.489 72.2443L749.527 73.6932L747.072 75.1421L744.616 76.8326L742.649 78.7644L740.443 79.9719L737.743 81.1793L735.531 82.6282L730.131 85.0431L728.164 86.009L725.714 87.458L724.974 85.7676L723.258 83.3527L722.274 81.1793L720.802 79.2474L719.574 77.3155L718.59 75.1421L717.607 72.7272L716.874 70.7953L716.134 68.139V66.2077L715.401 63.7928L715.157 61.8609L714.662 57.5142ZM765.974 156.522L765.729 157.005L763.273 158.937L759.345 161.593L756.645 163.284L754.433 164.491L752.228 165.94L750.261 166.665L747.56 167.631L744.86 168.355L742.649 169.321L739.948 169.562L737.248 170.528H735.042L732.342 170.77L730.131 171.253L727.186 171.011L721.785 171.253L719.079 171.011L716.629 170.528H713.19L710.734 170.045L708.034 169.562L705.822 168.838L703.122 167.631L700.916 166.665L695.76 163.767L694.288 161.593L692.565 159.661L691.093 157.488L690.109 155.315L689.131 152.9L688.637 150.243L688.392 148.312L688.637 145.172L689.376 140.584L689.62 137.928L691.093 135.03L691.832 132.857L693.06 130.684L694.776 128.993L696.738 126.578L700.177 123.197L702.877 121.266L705.089 119.817L707.294 118.126L711.717 115.47L713.929 113.779L716.629 112.572L718.835 111.606L719.329 111.365L719.818 112.089L721.535 113.779L723.258 116.194L724.974 117.885L726.941 120.058L729.147 121.749L730.619 123.922L732.342 125.854L734.548 127.786L736.27 129.959L738.726 131.65L740.687 133.823L742.404 135.03L744.371 136.962L748.544 140.825L750.016 142.757L752.228 144.689L754.189 146.138L756.4 148.312L758.117 149.76L762.045 153.624L764.257 155.073L765.974 156.522Z" fill="black"/>
</mask>
<g mask="url(#mask0_221_34)">
<path fill-rule="evenodd" clip-rule="evenodd" d="M819.991 176.082L823.181 180.19L822.692 182.361L819.991 186.224L818.763 188.639L815.08 192.742L812.868 192.986L810.412 192.742L803.784 188.156L801.823 186.469L800.1 184.775L797.65 182.844L795.683 181.395L793.716 179.463L791.51 178.014L789.054 175.843L787.338 174.15L785.37 172.702L783.159 170.77L781.198 169.562L779.725 171.253L777.758 172.943L776.042 174.875L773.83 176.082L771.374 177.775L769.413 179.463L766.468 180.673L764.257 181.878L761.801 183.571L759.84 184.293L757.139 185.503L754.684 186.707L752.228 187.19L749.772 187.918L747.316 188.401L744.616 189.122L741.426 190.088H738.971L736.759 190.333L734.059 191.054L730.864 190.816L728.164 191.054L725.714 191.537L720.307 191.299H715.157L712.451 191.054L709.506 190.333H706.561L703.861 189.367H701.649L698.46 188.639L696.249 187.673L693.06 186.469L691.093 185.986L688.637 184.293L685.936 183.571L683.481 181.639L681.025 180.673L675.38 175.116L673.663 172.46L672.19 170.77L670.468 168.355L669.24 166.182L668.507 163.767L667.523 160.869L667.279 158.695L666.54 156.039L666.051 152.9L666.295 150.243V144.931L666.79 142.516L667.523 137.204L668.012 134.789L669.24 132.132L669.735 129.959L670.963 127.061L671.946 124.888L673.168 122.473L676.608 117.885L678.08 116.194L679.308 114.262L681.275 112.089L683.481 110.399L684.953 108.708L687.409 107.259L689.131 105.569L691.337 103.637L694.037 102.189L696.004 101.223L698.216 99.2908L700.666 98.3249L703.366 96.876L705.578 96.1515L707.294 95.1856L706.806 94.4611L705.333 92.5292L703.616 89.8728L702.877 87.458L701.649 85.5261L700.177 83.1112L698.949 80.4548L697.966 78.04L697.232 75.1421L696.493 72.9688L696.004 70.5539L695.021 68.139L694.288 65.0003L693.793 60.1705L694.037 57.2727L694.532 55.0993L694.776 52.2014L695.516 47.3717L696.004 44.2324L697.232 42.059L699.194 37.2293L699.933 34.3314L701.649 32.641L703.122 30.2267L705.089 27.8118L706.806 26.3629L708.522 23.948L710.734 22.0161L712.451 20.8087L714.906 19.3598L717.362 17.6694L720.063 16.4619L722.763 15.496L725.463 15.013L728.164 14.2885L730.375 13.8056L733.075 13.3226L736.515 12.8396L738.971 12.5981L744.127 13.0811L746.827 12.5981L750.016 13.0811L752.472 13.5641L754.928 14.2885L760.573 15.7375L763.029 16.4619L764.746 18.1523L767.446 19.3598L769.413 20.8087L772.113 22.2576L773.83 23.948L775.797 26.1214L777.514 28.2948L778.498 29.7437L780.214 32.158L780.953 34.5729L782.181 37.2293L783.159 39.4026L783.409 42.3005L784.143 44.7154V52.6844L783.409 55.3408L782.67 60.1705L781.687 62.8269L780.709 65.2417L779.481 67.1731L778.498 69.3464L777.514 72.2443L776.042 74.4177L774.325 76.3496L772.602 78.04L771.13 80.2133L769.169 82.3868L766.713 83.5942L764.501 85.7676L762.296 87.2165L760.573 89.3899L757.873 90.8388L755.417 92.0462L753.456 93.7366L751.244 95.1856L748.299 96.393L745.844 97.8419L743.632 99.2908L740.932 100.257L738.232 101.706L737.004 102.43L737.248 102.671L738.971 105.086L741.176 106.776L743.143 108.95L744.86 111.365L748.788 115.228L750.755 116.919L752.228 119.334L754.189 121.266L756.4 123.197L758.367 125.371L760.573 127.061L763.029 128.993L764.501 130.925L768.674 135.03L771.374 136.721L773.097 138.653L775.553 140.584L777.025 142.033L778.253 140.101L780.214 137.928L780.953 135.272L782.181 132.857L783.654 130.201L784.387 127.786L785.865 125.371L786.354 122.956L787.338 119.817L788.071 117.16L790.038 112.814L792.738 111.123L798.139 111.848L800.35 112.814L803.05 113.296L808.695 115.228L809.435 117.402L807.956 123.197L806.979 125.612L805.995 128.269L805.012 130.684L804.523 132.857L803.295 135.755L802.556 138.17L801.328 140.825L800.1 142.999L798.872 145.655L797.4 147.829L796.666 150.002L794.944 152.175L793.227 154.832L792.738 155.315L794.944 156.764L797.155 158.695L801.572 162.076L803.784 164.25L806.484 165.699L808.451 167.389L811.151 169.079L813.357 171.494L815.324 173.185L817.535 174.392L819.991 176.082ZM714.662 57.5142L715.157 55.0993L715.89 50.994L716.379 48.3376L717.607 45.6813L718.346 43.5079L720.307 41.093L721.785 39.1612L726.202 35.2974L728.414 34.5729L731.114 33.3655L733.32 32.3995L736.27 31.675L738.971 31.9165L744.127 31.675L749.772 32.158L751.983 33.3655L753.944 34.0899L758.856 36.9877L760.329 39.1612L761.312 41.3345L762.045 43.5079L763.273 46.4057V51.2355L762.045 56.3067L761.312 59.4461L760.084 61.8609L758.612 64.0343L756.889 66.4486L755.172 67.8975L753.211 70.0709L751.489 72.2443L749.527 73.6932L747.072 75.1421L744.616 76.8326L742.649 78.7644L740.443 79.9719L737.743 81.1793L735.531 82.6282L730.131 85.0431L728.164 86.009L725.714 87.458L724.974 85.7676L723.258 83.3527L722.274 81.1793L720.802 79.2474L719.574 77.3155L718.59 75.1421L717.607 72.7272L716.874 70.7953L716.134 68.139V66.2077L715.401 63.7928L715.157 61.8609L714.662 57.5142ZM765.974 156.522L765.729 157.005L763.273 158.937L759.345 161.593L756.645 163.284L754.433 164.491L752.228 165.94L750.261 166.665L747.56 167.631L744.86 168.355L742.649 169.321L739.948 169.562L737.248 170.528H735.042L732.342 170.77L730.131 171.253L727.186 171.011L721.785 171.253L719.079 171.011L716.629 170.528H713.19L710.734 170.045L708.034 169.562L705.822 168.838L703.122 167.631L700.916 166.665L695.76 163.767L694.288 161.593L692.565 159.661L691.093 157.488L690.109 155.315L689.131 152.9L688.637 150.243L688.392 148.312L688.637 145.172L689.376 140.584L689.62 137.928L691.093 135.03L691.832 132.857L693.06 130.684L694.776 128.993L696.738 126.578L700.177 123.197L702.877 121.266L705.089 119.817L707.294 118.126L711.717 115.47L713.929 113.779L716.629 112.572L718.835 111.606L719.329 111.365L719.818 112.089L721.535 113.779L723.258 116.194L724.974 117.885L726.941 120.058L729.147 121.749L730.619 123.922L732.342 125.854L734.548 127.786L736.27 129.959L738.726 131.65L740.687 133.823L742.404 135.03L744.371 136.962L748.544 140.825L750.016 142.757L752.228 144.689L754.189 146.138L756.4 148.312L758.117 149.76L762.045 153.624L764.257 155.073L765.974 156.522Z" stroke="#4AD493" stroke-width="3.4"/>
</g>
<path d="M64.685 58.3931C99.7773 58.3931 121.775 76.7229 121.775 106.312V184.868C121.775 190.105 118.895 192.986 113.657 192.986H95.0634C89.8257 192.986 86.945 190.105 86.945 184.868V175.703C78.8266 189.058 63.8993 196.39 44.782 196.39C17.2843 196.39 0 181.464 0 157.636C0 131.974 20.165 116.001 53.424 116.001C63.8993 116.001 74.6365 117.572 82.493 120.452V106.836C82.493 94.267 75.684 86.6733 64.4231 86.6733C56.3047 86.6733 50.2814 90.6011 46.877 96.6237C43.9963 100.813 41.6394 102.646 36.9255 102.123L14.1417 98.4567C8.64214 97.4093 6.02331 93.7433 8.38025 88.5063C16.7605 69.9147 36.9255 58.3931 64.685 58.3931ZM58.9235 169.157C73.589 169.157 82.493 160.516 82.493 146.638V141.663C75.9459 138.782 68.3513 137.211 61.2805 137.211C47.9246 137.211 39.8062 143.234 39.8062 153.446C39.8062 163.135 46.877 169.157 58.9235 169.157ZM250.614 62.0591C255.851 62.0591 258.994 64.9394 258.994 70.1765V184.868C258.994 190.105 255.851 192.986 250.614 192.986H232.544C227.568 192.986 224.425 190.105 224.425 184.868V173.87C216.831 188.272 202.165 196.39 182.786 196.39C155.288 196.39 138.004 179.631 138.004 145.067V70.1765C138.004 64.9394 140.885 62.0591 146.122 62.0591H169.692C174.93 62.0591 177.81 64.9394 177.81 70.1765V142.186C177.81 155.541 185.667 163.658 198.237 163.658C210.807 163.658 218.926 154.493 219.188 139.83L218.926 70.1765C218.926 64.9394 222.068 62.0591 227.044 62.0591H250.614ZM349.182 161.04C354.419 161.04 357.562 164.182 357.562 169.419V185.654C357.562 190.891 354.419 194.033 349.182 194.033H330.85C303.352 194.033 286.33 178.584 286.33 153.97L286.068 94.2671H278.473C273.236 94.2671 270.355 91.3867 270.355 86.1496L270.093 70.1765C270.093 64.9394 273.236 62.0591 278.211 62.0591H287.377L298.115 35.8737C299.948 31.6841 303.09 29.8511 307.804 29.8511H317.494C322.732 29.8511 325.874 32.7315 325.874 37.9686V62.0591H346.563C351.801 62.0591 354.681 64.9394 354.681 70.1765V86.1496C354.681 91.3867 351.801 94.2671 346.563 94.2671H326.136V143.757C326.136 154.493 332.683 161.04 342.897 161.04H349.182ZM428.131 196.39C385.968 196.39 359.78 169.681 359.78 127.261C359.78 85.1022 385.968 58.3931 428.131 58.3931C470.033 58.3931 496.483 85.1022 496.483 127.261C496.483 169.681 470.033 196.39 428.131 196.39ZM428.131 164.182C444.368 164.182 454.581 150.042 454.581 127.261C454.581 104.741 444.368 90.3392 428.131 90.3392C411.895 90.3392 401.681 104.741 401.681 127.261C401.681 150.042 411.895 164.182 428.131 164.182ZM505.389 165.491C503.032 160.254 505.913 156.588 511.412 155.803L532.101 152.399C536.553 151.875 539.696 153.708 542.315 157.636C546.767 164.706 554.361 168.633 564.051 168.633C574.788 168.633 581.597 163.92 581.597 156.85C581.597 131.45 505.913 145.852 505.913 99.2423C505.913 73.8425 528.435 58.3931 561.17 58.3931C585.263 58.3931 606.214 67.2962 615.642 86.6733C617.999 91.9104 615.118 95.8382 609.618 96.8856L589.977 100.028C585.001 100.813 582.383 98.9804 579.764 94.7907C576.359 88.7681 570.336 85.8877 561.17 85.8877C551.48 85.8877 545.719 89.5537 545.719 94.7907C545.719 116.786 622.451 106.574 622.451 154.493C622.451 180.155 600.714 196.39 565.098 196.39C537.863 196.39 514.293 187.225 505.389 165.491Z" fill="#262626"/>
</svg>
