<svg width="699" height="226" viewBox="0 0 699 226" fill="none" xmlns="http://www.w3.org/2000/svg">
<mask id="mask0_68_2" style="mask-type:luminance" maskUnits="userSpaceOnUse" x="0" y="0" width="226" height="226">
<path d="M143.158 0.445473L0.444336 82.8413L82.8402 225.555L225.554 143.159L143.158 0.445473Z" fill="white"/>
</mask>
<g mask="url(#mask0_68_2)">
<path d="M71.8015 41.6436C32.3923 64.3966 18.8896 114.789 41.6425 154.198L77.3211 133.599C65.9446 113.895 72.6958 88.6986 92.4004 77.3221L71.8015 41.6436Z" fill="#FCC31E"/>
<path d="M184.357 71.8025C161.604 32.3932 111.211 18.8905 71.8018 41.6435L92.4007 77.322C112.105 65.9455 137.302 72.6968 148.678 92.4014L184.357 71.8025Z" fill="#E23A2E"/>
<path fill-rule="evenodd" clip-rule="evenodd" d="M154.197 184.357L133.598 148.678C113.894 160.055 88.6977 153.304 77.3212 133.599L41.6426 154.198C64.3956 193.607 114.788 207.11 154.197 184.357Z" fill="#259645"/>
<path d="M154.198 184.357C193.607 161.604 207.11 111.211 184.357 71.8022L148.678 92.4012C160.055 112.106 153.303 137.302 133.599 148.679L154.198 184.357Z" fill="#1A73E8"/>
<path d="M91.8903 77.6163C101.743 71.928 105.118 59.3299 99.4301 49.4776C93.7418 39.6252 81.1437 36.2496 71.2914 41.9378C61.439 47.6261 58.0634 60.2242 63.7516 70.0765C69.4399 79.9289 82.038 83.3045 91.8903 77.6163Z" fill="#E23A2E"/>
<path d="M74.6722 129.012C80.3603 138.864 76.9846 151.462 67.1322 157.151C57.28 162.839 44.682 159.463 38.9936 149.611C33.3054 139.759 36.6811 127.16 46.5333 121.472C56.3857 115.784 68.9838 119.16 74.6722 129.012Z" fill="#FCC31E"/>
<path d="M175.345 97.3926C185.198 91.7044 188.573 79.1063 182.885 69.2539C177.197 59.4016 164.599 56.026 154.746 61.7142C144.894 67.4024 141.518 80.0006 147.207 89.8529C152.895 99.7052 165.493 103.081 175.345 97.3926Z" fill="#1A73E8"/>
<path d="M153.687 184.651C163.54 178.963 166.915 166.365 161.227 156.513C155.539 146.66 142.941 143.285 133.088 148.973C123.236 154.661 119.86 167.259 125.549 177.112C131.237 186.964 143.835 190.34 153.687 184.651Z" fill="#259645"/>
<path d="M131.245 144.601C148.697 134.525 154.677 112.208 144.601 94.7554C134.525 77.3027 112.208 71.3229 94.7552 81.3993C77.3025 91.4756 71.3228 113.792 81.3991 131.245C91.4754 148.698 113.792 154.677 131.245 144.601Z" stroke="white" stroke-width="16"/>
</g>
<path d="M314.352 169.048C300.784 169.048 289.435 164.483 280.304 155.352C271.259 146.221 266.736 134.829 266.736 121.176C266.736 107.523 271.259 96.1733 280.304 87.128C289.349 77.912 300.699 73.304 314.352 73.304C328.176 73.304 339.397 78.296 348.016 88.28L339.568 96.472C332.997 88.536 324.592 84.568 314.352 84.568C304.197 84.568 295.707 87.9813 288.88 94.808C282.139 101.549 278.768 110.339 278.768 121.176C278.768 132.013 282.139 140.803 288.88 147.544C295.707 154.371 304.197 157.784 314.352 157.784C325.019 157.784 334.277 153.304 342.128 144.344L350.704 152.664C346.352 157.869 341.019 161.923 334.704 164.824C328.389 167.64 321.605 169.048 314.352 169.048ZM356.334 135.64C356.334 125.997 359.363 118.019 365.422 111.704C371.566 105.389 379.289 102.232 388.59 102.232C397.891 102.232 405.571 105.389 411.63 111.704C417.774 118.019 420.846 125.997 420.846 135.64C420.846 145.368 417.774 153.347 411.63 159.576C405.571 165.891 397.891 169.048 388.59 169.048C379.289 169.048 371.566 165.891 365.422 159.576C359.363 153.261 356.334 145.283 356.334 135.64ZM368.11 135.64C368.11 142.381 370.073 147.843 373.998 152.024C377.923 156.205 382.787 158.296 388.59 158.296C394.393 158.296 399.257 156.205 403.182 152.024C407.107 147.843 409.07 142.381 409.07 135.64C409.07 128.984 407.107 123.565 403.182 119.384C399.171 115.117 394.307 112.984 388.59 112.984C382.873 112.984 378.009 115.117 373.998 119.384C370.073 123.565 368.11 128.984 368.11 135.64ZM442.069 167H430.293V104.28H441.557V114.52H442.069C443.264 111.192 445.696 108.376 449.365 106.072C453.12 103.683 456.789 102.488 460.373 102.488C463.786 102.488 466.688 103 469.077 104.024L465.493 115.416C464.042 114.819 461.738 114.52 458.581 114.52C454.144 114.52 450.261 116.312 446.933 119.896C443.69 123.48 442.069 127.661 442.069 132.44V167ZM469.334 135.64C469.334 125.997 472.363 118.019 478.422 111.704C484.566 105.389 492.289 102.232 501.59 102.232C510.891 102.232 518.571 105.389 524.63 111.704C530.774 118.019 533.846 125.997 533.846 135.64C533.846 145.368 530.774 153.347 524.63 159.576C518.571 165.891 510.891 169.048 501.59 169.048C492.289 169.048 484.566 165.891 478.422 159.576C472.363 153.261 469.334 145.283 469.334 135.64ZM481.11 135.64C481.11 142.381 483.073 147.843 486.998 152.024C490.923 156.205 495.787 158.296 501.59 158.296C507.393 158.296 512.257 156.205 516.182 152.024C520.107 147.843 522.07 142.381 522.07 135.64C522.07 128.984 520.107 123.565 516.182 119.384C512.171 115.117 507.307 112.984 501.59 112.984C495.873 112.984 491.009 115.117 486.998 119.384C483.073 123.565 481.11 128.984 481.11 135.64ZM543.293 104.28H554.557V112.984H555.069C556.861 109.912 559.592 107.352 563.261 105.304C567.016 103.256 570.898 102.232 574.909 102.232C582.589 102.232 588.477 104.451 592.573 108.888C596.754 113.24 598.845 119.469 598.845 127.576V167H587.069V128.344C586.813 118.104 581.65 112.984 571.581 112.984C566.888 112.984 562.962 114.904 559.805 118.744C556.648 122.499 555.069 127.021 555.069 132.312V167H543.293V104.28ZM640.828 169.048C631.612 169.048 624.017 165.891 618.044 159.576C612.071 153.261 609.084 145.283 609.084 135.64C609.084 126.083 611.985 118.147 617.788 111.832C623.591 105.432 631.015 102.232 640.06 102.232C649.361 102.232 656.743 105.261 662.204 111.32C667.751 117.293 670.524 125.699 670.524 136.536L670.396 137.816H621.116C621.287 143.96 623.335 148.909 627.26 152.664C631.185 156.419 635.879 158.296 641.34 158.296C648.849 158.296 654.737 154.541 659.004 147.032L669.5 152.152C666.684 157.443 662.759 161.581 657.724 164.568C652.775 167.555 647.143 169.048 640.828 169.048ZM622.012 128.088H657.98C657.639 123.736 655.847 120.152 652.604 117.336C649.447 114.435 645.18 112.984 639.804 112.984C635.367 112.984 631.527 114.349 628.284 117.08C625.127 119.811 623.036 123.48 622.012 128.088Z" fill="black"/>
</svg>
