<svg width="226" height="226" viewBox="0 0 226 226" fill="none" xmlns="http://www.w3.org/2000/svg">
<mask id="mask0_66_267" style="mask-type:luminance" maskUnits="userSpaceOnUse" x="0" y="0" width="226" height="226">
<path d="M143.158 0.445473L0.444336 82.8413L82.8402 225.555L225.554 143.159L143.158 0.445473Z" fill="white"/>
</mask>
<g mask="url(#mask0_66_267)">
<path d="M71.8015 41.6436C32.3923 64.3966 18.8896 114.789 41.6425 154.198L77.3211 133.599C65.9446 113.895 72.6958 88.6986 92.4004 77.3221L71.8015 41.6436Z" fill="#FCC31E"/>
<path d="M184.357 71.8025C161.604 32.3932 111.211 18.8905 71.8018 41.6435L92.4007 77.322C112.105 65.9455 137.302 72.6968 148.678 92.4014L184.357 71.8025Z" fill="#E23A2E"/>
<path fill-rule="evenodd" clip-rule="evenodd" d="M154.197 184.357L133.598 148.678C113.894 160.055 88.6977 153.304 77.3212 133.599L41.6426 154.198C64.3956 193.607 114.788 207.11 154.197 184.357Z" fill="#259645"/>
<path d="M154.198 184.357C193.607 161.604 207.11 111.211 184.357 71.8022L148.678 92.4012C160.055 112.106 153.303 137.302 133.599 148.679L154.198 184.357Z" fill="#1A73E8"/>
<path d="M91.8903 77.6163C101.743 71.928 105.118 59.3299 99.4301 49.4776C93.7418 39.6252 81.1437 36.2496 71.2914 41.9378C61.439 47.6261 58.0634 60.2242 63.7516 70.0765C69.4399 79.9289 82.038 83.3045 91.8903 77.6163Z" fill="#E23A2E"/>
<path d="M74.6722 129.012C80.3603 138.864 76.9846 151.462 67.1322 157.151C57.28 162.839 44.682 159.463 38.9936 149.611C33.3054 139.759 36.6811 127.16 46.5333 121.472C56.3857 115.784 68.9838 119.16 74.6722 129.012Z" fill="#FCC31E"/>
<path d="M175.345 97.3926C185.198 91.7044 188.573 79.1063 182.885 69.2539C177.197 59.4016 164.599 56.026 154.746 61.7142C144.894 67.4024 141.518 80.0006 147.207 89.8529C152.895 99.7052 165.493 103.081 175.345 97.3926Z" fill="#1A73E8"/>
<path d="M153.687 184.651C163.54 178.963 166.915 166.365 161.227 156.513C155.539 146.66 142.941 143.285 133.088 148.973C123.236 154.661 119.86 167.259 125.549 177.112C131.237 186.964 143.835 190.34 153.687 184.651Z" fill="#259645"/>
<path d="M131.245 144.601C148.697 134.525 154.677 112.208 144.601 94.7554C134.525 77.3027 112.208 71.3229 94.7552 81.3993C77.3025 91.4756 71.3228 113.792 81.3991 131.245C91.4754 148.698 113.792 154.677 131.245 144.601Z" stroke="white" stroke-width="16"/>
</g>
</svg>
