<svg width="698" height="815" viewBox="0 0 698 815" fill="none" xmlns="http://www.w3.org/2000/svg">
<g filter="url(#filter0_d_40_159)">
<circle cx="348.998" cy="775.866" r="26.7534" fill="white"/>
</g>
<g filter="url(#filter1_d_40_159)">
<rect x="170.174" y="242.21" width="357.649" height="360.465" rx="43" fill="black" fill-opacity="0.64"/>
<rect x="170" y="560" width="358" height="18" fill="#C3E5CA"/>
<rect x="170" y="560" width="358" height="43" rx="21.5" fill="#C3E5CA"/>
</g>
<g filter="url(#filter2_d_40_159)">
<rect x="35" y="31" width="627.998" height="143.623" rx="49" fill="white"/>
</g>
<path d="M152.041 130.278V120.378H163.366C166.216 120.378 168.741 119.953 170.941 119.103C173.191 118.203 175.091 116.953 176.641 115.353C178.191 113.753 179.366 111.878 180.166 109.728C181.016 107.528 181.441 105.103 181.441 102.453C181.441 99.7027 181.016 97.2527 180.166 95.1027C179.366 92.9027 178.191 91.0277 176.641 89.4777C175.091 87.9277 173.191 86.7527 170.941 85.9527C168.741 85.1527 166.216 84.7527 163.366 84.7527H152.041V74.8527H162.691C167.641 74.8527 171.966 75.5777 175.666 77.0277C179.366 78.4777 182.441 80.4777 184.891 83.0277C187.341 85.5277 189.166 88.4027 190.366 91.6527C191.616 94.8527 192.241 98.1777 192.241 101.628V103.278C192.241 106.578 191.616 109.828 190.366 113.028C189.166 116.228 187.341 119.128 184.891 121.728C182.441 124.328 179.366 126.403 175.666 127.953C171.966 129.503 167.641 130.278 162.691 130.278H152.041ZM142.891 130.278V74.8527H153.541V130.278H142.891ZM220.527 131.403C216.927 131.403 213.752 130.828 211.002 129.678C208.252 128.528 205.927 126.978 204.027 125.028C202.127 123.028 200.677 120.778 199.677 118.278C198.727 115.778 198.252 113.178 198.252 110.478V108.903C198.252 106.103 198.752 103.453 199.752 100.953C200.802 98.4027 202.277 96.1527 204.177 94.2027C206.127 92.2027 208.477 90.6527 211.227 89.5527C213.977 88.4027 217.077 87.8277 220.527 87.8277C223.977 87.8277 227.077 88.4027 229.827 89.5527C232.577 90.6527 234.902 92.2027 236.802 94.2027C238.752 96.1527 240.227 98.4027 241.227 100.953C242.227 103.453 242.727 106.103 242.727 108.903V110.478C242.727 113.178 242.227 115.778 241.227 118.278C240.277 120.778 238.852 123.028 236.952 125.028C235.052 126.978 232.727 128.528 229.977 129.678C227.227 130.828 224.077 131.403 220.527 131.403ZM220.527 122.478C223.077 122.478 225.227 121.928 226.977 120.828C228.727 119.678 230.052 118.153 230.952 116.253C231.852 114.303 232.302 112.103 232.302 109.653C232.302 107.153 231.827 104.953 230.877 103.053C229.977 101.103 228.627 99.5777 226.827 98.4777C225.077 97.3277 222.977 96.7527 220.527 96.7527C218.077 96.7527 215.952 97.3277 214.152 98.4777C212.402 99.5777 211.052 101.103 210.102 103.053C209.152 104.953 208.677 107.153 208.677 109.653C208.677 112.103 209.127 114.303 210.027 116.253C210.977 118.153 212.327 119.678 214.077 120.828C215.827 121.928 217.977 122.478 220.527 122.478ZM264.927 129.978L272.652 90.6027H284.652L293.577 129.978H285.327L276.252 90.8277H280.602L272.577 129.978H264.927ZM261.852 129.978L261.777 121.428H270.102V129.978H261.852ZM257.652 129.978L246.552 89.2527H256.677L267.252 129.978H257.652ZM287.952 129.978V121.428H296.277L296.202 129.978H287.952ZM291.252 129.978L300.627 89.2527H310.077L300.252 129.978H291.252ZM318.286 129.978V89.2527H326.536V106.728H325.786C325.786 102.578 326.336 99.1277 327.436 96.3777C328.536 93.5777 330.161 91.4777 332.311 90.0777C334.511 88.6777 337.236 87.9777 340.486 87.9777H340.936C345.786 87.9777 349.461 89.5527 351.961 92.7027C354.461 95.8027 355.711 100.453 355.711 106.653V129.978H345.286V105.753C345.286 103.253 344.561 101.228 343.111 99.6777C341.711 98.1277 339.761 97.3527 337.261 97.3527C334.711 97.3527 332.636 98.1527 331.036 99.7527C329.486 101.303 328.711 103.403 328.711 106.053V129.978H318.286ZM384.619 130.503C380.869 130.503 377.769 130.028 375.319 129.078C372.919 128.078 371.119 126.428 369.919 124.128C368.719 121.778 368.119 118.628 368.119 114.678L368.194 77.7777H377.944L377.869 115.353C377.869 117.353 378.394 118.903 379.444 120.003C380.544 121.053 382.094 121.578 384.094 121.578H390.469V130.503H384.619ZM361.669 96.9027V89.2527H390.469V96.9027H361.669ZM418.574 131.403C414.974 131.403 411.799 130.828 409.049 129.678C406.299 128.528 403.974 126.978 402.074 125.028C400.174 123.028 398.724 120.778 397.724 118.278C396.774 115.778 396.299 113.178 396.299 110.478V108.903C396.299 106.103 396.799 103.453 397.799 100.953C398.849 98.4027 400.324 96.1527 402.224 94.2027C404.174 92.2027 406.524 90.6527 409.274 89.5527C412.024 88.4027 415.124 87.8277 418.574 87.8277C422.024 87.8277 425.124 88.4027 427.874 89.5527C430.624 90.6527 432.949 92.2027 434.849 94.2027C436.799 96.1527 438.274 98.4027 439.274 100.953C440.274 103.453 440.774 106.103 440.774 108.903V110.478C440.774 113.178 440.274 115.778 439.274 118.278C438.324 120.778 436.899 123.028 434.999 125.028C433.099 126.978 430.774 128.528 428.024 129.678C425.274 130.828 422.124 131.403 418.574 131.403ZM418.574 122.478C421.124 122.478 423.274 121.928 425.024 120.828C426.774 119.678 428.099 118.153 428.999 116.253C429.899 114.303 430.349 112.103 430.349 109.653C430.349 107.153 429.874 104.953 428.924 103.053C428.024 101.103 426.674 99.5777 424.874 98.4777C423.124 97.3277 421.024 96.7527 418.574 96.7527C416.124 96.7527 413.999 97.3277 412.199 98.4777C410.449 99.5777 409.099 101.103 408.149 103.053C407.199 104.953 406.724 107.153 406.724 109.653C406.724 112.103 407.174 114.303 408.074 116.253C409.024 118.153 410.374 119.678 412.124 120.828C413.874 121.928 416.024 122.478 418.574 122.478ZM462.974 129.978L470.699 90.6027H482.699L491.624 129.978H483.374L474.299 90.8277H478.649L470.624 129.978H462.974ZM459.899 129.978L459.824 121.428H468.149V129.978H459.899ZM455.699 129.978L444.599 89.2527H454.724L465.299 129.978H455.699ZM485.999 129.978V121.428H494.324L494.249 129.978H485.999ZM489.299 129.978L498.674 89.2527H508.124L498.299 129.978H489.299ZM516.333 129.978V89.2527H524.583V106.728H523.833C523.833 102.578 524.383 99.1277 525.483 96.3777C526.583 93.5777 528.208 91.4777 530.358 90.0777C532.558 88.6777 535.283 87.9777 538.533 87.9777H538.983C543.833 87.9777 547.508 89.5527 550.008 92.7027C552.508 95.8027 553.758 100.453 553.758 106.653V129.978H543.333V105.753C543.333 103.253 542.608 101.228 541.158 99.6777C539.758 98.1277 537.808 97.3527 535.308 97.3527C532.758 97.3527 530.683 98.1527 529.083 99.7527C527.533 101.303 526.758 103.403 526.758 106.053V129.978H516.333Z" fill="black"/>
<path d="M366.501 356.5V339H331.501V356.5H366.501ZM279.001 374V470.25H419.001V374H279.001ZM419.001 356.5C428.713 356.5 436.501 364.287 436.501 374V470.25C436.501 479.962 428.713 487.75 419.001 487.75H279.001C269.288 487.75 261.501 479.962 261.501 470.25L261.588 374C261.588 364.287 269.288 356.5 279.001 356.5H314.001V339C314.001 329.287 321.788 321.5 331.501 321.5H366.501C376.213 321.5 384.001 329.287 384.001 339V356.5H419.001Z" fill="white"/>
<path d="M349.453 418.999C339.135 416.318 335.817 413.545 335.817 409.227C335.817 404.272 340.408 400.818 348.09 400.818C354.544 400.818 357.771 403.272 358.953 407.181C359.499 408.999 360.999 410.363 362.908 410.363H364.271C367.271 410.363 369.408 407.409 368.362 404.59C366.453 399.227 361.999 394.772 354.908 393.045V389.909C354.908 386.136 351.862 383.09 348.09 383.09C344.317 383.09 341.271 386.136 341.271 389.909V392.909C332.453 394.818 325.362 400.545 325.362 409.318C325.362 419.818 334.044 425.045 346.726 428.09C358.09 430.818 360.362 434.818 360.362 439.045C360.362 442.181 358.135 447.181 348.09 447.181C340.59 447.181 336.726 444.499 335.226 440.681C334.544 438.909 332.999 437.636 331.135 437.636H329.862C326.817 437.636 324.68 440.727 325.817 443.545C328.408 449.863 334.453 453.59 341.271 455.045V458.09C341.271 461.863 344.317 464.909 348.09 464.909C351.862 464.909 354.908 461.863 354.908 458.09V455.136C363.771 453.454 370.817 448.318 370.817 438.999C370.817 426.09 359.771 421.681 349.453 418.999Z" fill="white"/>
<defs>
<filter id="filter0_d_40_159" x="313.945" y="744.813" width="70.1068" height="70.1067" filterUnits="userSpaceOnUse" color-interpolation-filters="sRGB">
<feFlood flood-opacity="0" result="BackgroundImageFix"/>
<feColorMatrix in="SourceAlpha" type="matrix" values="0 0 0 0 0 0 0 0 0 0 0 0 0 0 0 0 0 0 127 0" result="hardAlpha"/>
<feMorphology radius="2" operator="dilate" in="SourceAlpha" result="effect1_dropShadow_40_159"/>
<feOffset dy="4"/>
<feGaussianBlur stdDeviation="3.15"/>
<feComposite in2="hardAlpha" operator="out"/>
<feColorMatrix type="matrix" values="0 0 0 0 0 0 0 0 0 0 0 0 0 0 0 0 0 0 0.5 0"/>
<feBlend mode="normal" in2="BackgroundImageFix" result="effect1_dropShadow_40_159"/>
<feBlend mode="normal" in="SourceGraphic" in2="effect1_dropShadow_40_159" result="shape"/>
</filter>
<filter id="filter1_d_40_159" x="130.4" y="206.61" width="437.2" height="439.99" filterUnits="userSpaceOnUse" color-interpolation-filters="sRGB">
<feFlood flood-opacity="0" result="BackgroundImageFix"/>
<feColorMatrix in="SourceAlpha" type="matrix" values="0 0 0 0 0 0 0 0 0 0 0 0 0 0 0 0 0 0 127 0" result="hardAlpha"/>
<feOffset dy="4"/>
<feGaussianBlur stdDeviation="19.8"/>
<feComposite in2="hardAlpha" operator="out"/>
<feColorMatrix type="matrix" values="0 0 0 0 0 0 0 0 0 0 0 0 0 0 0 0 0 0 0.7 0"/>
<feBlend mode="normal" in2="BackgroundImageFix" result="effect1_dropShadow_40_159"/>
<feBlend mode="normal" in="SourceGraphic" in2="effect1_dropShadow_40_159" result="shape"/>
</filter>
<filter id="filter2_d_40_159" x="0" y="0" width="697.998" height="213.623" filterUnits="userSpaceOnUse" color-interpolation-filters="sRGB">
<feFlood flood-opacity="0" result="BackgroundImageFix"/>
<feColorMatrix in="SourceAlpha" type="matrix" values="0 0 0 0 0 0 0 0 0 0 0 0 0 0 0 0 0 0 127 0" result="hardAlpha"/>
<feMorphology radius="2" operator="dilate" in="SourceAlpha" result="effect1_dropShadow_40_159"/>
<feOffset dy="4"/>
<feGaussianBlur stdDeviation="16.5"/>
<feComposite in2="hardAlpha" operator="out"/>
<feColorMatrix type="matrix" values="0 0 0 0 0 0 0 0 0 0 0 0 0 0 0 0 0 0 0.7 0"/>
<feBlend mode="normal" in2="BackgroundImageFix" result="effect1_dropShadow_40_159"/>
<feBlend mode="normal" in="SourceGraphic" in2="effect1_dropShadow_40_159" result="shape"/>
</filter>
</defs>
</svg>
