<svg width="698" height="815" viewBox="0 0 698 815" fill="none" xmlns="http://www.w3.org/2000/svg">
<g filter="url(#filter0_d_40_126)">
<circle cx="348.998" cy="775.866" r="26.7534" fill="white"/>
</g>
<g filter="url(#filter1_d_40_126)">
<rect x="170.174" y="242.21" width="357.649" height="360.465" rx="43" fill="black" fill-opacity="0.64"/>
<rect x="170" y="560" width="358" height="18" fill="#C3EDFF"/>
<rect x="170" y="560" width="358" height="43" rx="21.5" fill="#C3EDFF"/>
</g>
<g filter="url(#filter2_d_40_126)">
<rect x="35" y="31" width="627.998" height="143.623" rx="49" fill="white"/>
</g>
<path d="M174.019 129.978V75.2277H188.569L202.294 107.928H203.644L217.294 75.2277H232.069V129.978H221.494V83.2527L222.844 83.4027L208.069 118.803H197.194L182.344 83.4027L183.769 83.2527V129.978H174.019ZM243.551 146.028V137.103H251.201C252.651 137.103 253.851 136.903 254.801 136.503C255.801 136.153 256.626 135.553 257.276 134.703C257.926 133.903 258.426 132.778 258.776 131.328L269.726 89.2527H279.701L267.626 133.578C266.826 136.628 265.701 139.053 264.251 140.853C262.801 142.703 260.926 144.028 258.626 144.828C256.376 145.628 253.576 146.028 250.226 146.028H243.551ZM256.226 129.078V120.828H264.926V129.078H256.226ZM252.701 129.078L239.501 89.2527H250.001L262.526 129.078H252.701ZM339.802 129.978V75.2277H350.452V129.978H339.802ZM303.877 129.978V75.2277H314.527V129.978H303.877ZM312.577 107.253V97.8777H341.752V107.253H312.577ZM382.686 131.403C379.086 131.403 375.911 130.828 373.161 129.678C370.411 128.528 368.086 126.978 366.186 125.028C364.286 123.028 362.836 120.778 361.836 118.278C360.886 115.778 360.411 113.178 360.411 110.478V108.903C360.411 106.103 360.911 103.453 361.911 100.953C362.961 98.4027 364.436 96.1527 366.336 94.2027C368.286 92.2027 370.636 90.6527 373.386 89.5527C376.136 88.4027 379.236 87.8277 382.686 87.8277C386.136 87.8277 389.236 88.4027 391.986 89.5527C394.736 90.6527 397.061 92.2027 398.961 94.2027C400.911 96.1527 402.386 98.4027 403.386 100.953C404.386 103.453 404.886 106.103 404.886 108.903V110.478C404.886 113.178 404.386 115.778 403.386 118.278C402.436 120.778 401.011 123.028 399.111 125.028C397.211 126.978 394.886 128.528 392.136 129.678C389.386 130.828 386.236 131.403 382.686 131.403ZM382.686 122.478C385.236 122.478 387.386 121.928 389.136 120.828C390.886 119.678 392.211 118.153 393.111 116.253C394.011 114.303 394.461 112.103 394.461 109.653C394.461 107.153 393.986 104.953 393.036 103.053C392.136 101.103 390.786 99.5777 388.986 98.4777C387.236 97.3277 385.136 96.7527 382.686 96.7527C380.236 96.7527 378.111 97.3277 376.311 98.4777C374.561 99.5777 373.211 101.103 372.261 103.053C371.311 104.953 370.836 107.153 370.836 109.653C370.836 112.103 371.286 114.303 372.186 116.253C373.136 118.153 374.486 119.678 376.236 120.828C377.986 121.928 380.136 122.478 382.686 122.478ZM414.014 129.978V89.2527H422.264V106.728H421.514C421.514 102.628 422.039 99.2027 423.089 96.4527C424.139 93.6527 425.689 91.5527 427.739 90.1527C429.839 88.7027 432.439 87.9777 435.539 87.9777H435.989C439.139 87.9777 441.739 88.7027 443.789 90.1527C445.889 91.5527 447.439 93.6527 448.439 96.4527C449.489 99.2027 450.014 102.628 450.014 106.728H447.389C447.389 102.628 447.914 99.2027 448.964 96.4527C450.064 93.6527 451.639 91.5527 453.689 90.1527C455.789 88.7027 458.389 87.9777 461.489 87.9777H461.939C465.089 87.9777 467.714 88.7027 469.814 90.1527C471.914 91.5527 473.489 93.6527 474.539 96.4527C475.639 99.2027 476.189 102.628 476.189 106.728V129.978H465.764V105.753C465.764 103.203 465.114 101.178 463.814 99.6777C462.514 98.1277 460.664 97.3527 458.264 97.3527C455.864 97.3527 453.939 98.1527 452.489 99.7527C451.039 101.303 450.314 103.403 450.314 106.053V129.978H439.889V105.753C439.889 103.203 439.239 101.178 437.939 99.6777C436.639 98.1277 434.789 97.3527 432.389 97.3527C429.989 97.3527 428.064 98.1527 426.614 99.7527C425.164 101.303 424.439 103.403 424.439 106.053V129.978H414.014ZM505.554 131.403C502.054 131.403 498.979 130.803 496.329 129.603C493.729 128.403 491.554 126.803 489.804 124.803C488.104 122.753 486.804 120.478 485.904 117.978C485.054 115.478 484.629 112.928 484.629 110.328V108.903C484.629 106.203 485.054 103.603 485.904 101.103C486.804 98.5527 488.104 96.3027 489.804 94.3527C491.554 92.3527 493.704 90.7777 496.254 89.6277C498.804 88.4277 501.754 87.8277 505.104 87.8277C509.504 87.8277 513.179 88.8027 516.129 90.7527C519.129 92.6527 521.379 95.1777 522.879 98.3277C524.379 101.428 525.129 104.778 525.129 108.378V112.128H489.054V105.753H518.604L515.379 108.903C515.379 106.303 515.004 104.078 514.254 102.228C513.504 100.378 512.354 98.9527 510.804 97.9527C509.304 96.9527 507.404 96.4527 505.104 96.4527C502.804 96.4527 500.854 96.9777 499.254 98.0277C497.654 99.0777 496.429 100.603 495.579 102.603C494.779 104.553 494.379 106.903 494.379 109.653C494.379 112.203 494.779 114.478 495.579 116.478C496.379 118.428 497.604 119.978 499.254 121.128C500.904 122.228 503.004 122.778 505.554 122.778C508.104 122.778 510.179 122.278 511.779 121.278C513.379 120.228 514.404 118.953 514.854 117.453H524.454C523.854 120.253 522.704 122.703 521.004 124.803C519.304 126.903 517.129 128.528 514.479 129.678C511.879 130.828 508.904 131.403 505.554 131.403Z" fill="black"/>
<path d="M395.788 440.65H303.313C302.206 440.65 301.301 441.556 301.301 442.662L301.275 454.737C301.275 455.844 302.181 456.75 303.288 456.75H395.788C396.894 456.75 397.8 455.844 397.8 454.737V442.662C397.8 441.556 396.894 440.65 395.788 440.65ZM395.788 464.8H303.238C302.131 464.8 301.225 465.706 301.225 466.812L301.2 478.887C301.2 479.994 302.106 480.9 303.213 480.9H395.788C396.894 480.9 397.8 479.994 397.8 478.887V466.812C397.8 465.706 396.894 464.8 395.788 464.8ZM395.788 416.5H303.363C302.257 416.5 301.351 417.406 301.351 418.512L301.326 430.587C301.326 431.694 302.231 432.6 303.338 432.6H395.788C396.894 432.6 397.8 431.694 397.8 430.587V418.512C397.8 417.406 396.894 416.5 395.788 416.5ZM422.579 381.533L354.129 353.031C352.657 352.42 351.08 352.106 349.487 352.106C347.895 352.106 346.317 352.42 344.846 353.031L276.421 381.533C271.943 383.42 269 387.797 269 392.677V478.887C269 479.994 269.906 480.9 271.013 480.9H291.138C292.244 480.9 293.15 479.994 293.15 478.887V416.5C293.15 412.072 296.823 408.45 301.351 408.45H397.649C402.177 408.45 405.85 412.072 405.85 416.5V478.887C405.85 479.994 406.756 480.9 407.863 480.9H427.988C429.094 480.9 430 479.994 430 478.887V392.677C430 387.797 427.057 383.42 422.579 381.533Z" fill="white"/>
<defs>
<filter id="filter0_d_40_126" x="313.945" y="744.813" width="70.1068" height="70.1067" filterUnits="userSpaceOnUse" color-interpolation-filters="sRGB">
<feFlood flood-opacity="0" result="BackgroundImageFix"/>
<feColorMatrix in="SourceAlpha" type="matrix" values="0 0 0 0 0 0 0 0 0 0 0 0 0 0 0 0 0 0 127 0" result="hardAlpha"/>
<feMorphology radius="2" operator="dilate" in="SourceAlpha" result="effect1_dropShadow_40_126"/>
<feOffset dy="4"/>
<feGaussianBlur stdDeviation="3.15"/>
<feComposite in2="hardAlpha" operator="out"/>
<feColorMatrix type="matrix" values="0 0 0 0 0 0 0 0 0 0 0 0 0 0 0 0 0 0 0.5 0"/>
<feBlend mode="normal" in2="BackgroundImageFix" result="effect1_dropShadow_40_126"/>
<feBlend mode="normal" in="SourceGraphic" in2="effect1_dropShadow_40_126" result="shape"/>
</filter>
<filter id="filter1_d_40_126" x="130.4" y="206.61" width="437.2" height="439.99" filterUnits="userSpaceOnUse" color-interpolation-filters="sRGB">
<feFlood flood-opacity="0" result="BackgroundImageFix"/>
<feColorMatrix in="SourceAlpha" type="matrix" values="0 0 0 0 0 0 0 0 0 0 0 0 0 0 0 0 0 0 127 0" result="hardAlpha"/>
<feOffset dy="4"/>
<feGaussianBlur stdDeviation="19.8"/>
<feComposite in2="hardAlpha" operator="out"/>
<feColorMatrix type="matrix" values="0 0 0 0 0 0 0 0 0 0 0 0 0 0 0 0 0 0 0.7 0"/>
<feBlend mode="normal" in2="BackgroundImageFix" result="effect1_dropShadow_40_126"/>
<feBlend mode="normal" in="SourceGraphic" in2="effect1_dropShadow_40_126" result="shape"/>
</filter>
<filter id="filter2_d_40_126" x="0" y="0" width="697.998" height="213.623" filterUnits="userSpaceOnUse" color-interpolation-filters="sRGB">
<feFlood flood-opacity="0" result="BackgroundImageFix"/>
<feColorMatrix in="SourceAlpha" type="matrix" values="0 0 0 0 0 0 0 0 0 0 0 0 0 0 0 0 0 0 127 0" result="hardAlpha"/>
<feMorphology radius="2" operator="dilate" in="SourceAlpha" result="effect1_dropShadow_40_126"/>
<feOffset dy="4"/>
<feGaussianBlur stdDeviation="16.5"/>
<feComposite in2="hardAlpha" operator="out"/>
<feColorMatrix type="matrix" values="0 0 0 0 0 0 0 0 0 0 0 0 0 0 0 0 0 0 0.7 0"/>
<feBlend mode="normal" in2="BackgroundImageFix" result="effect1_dropShadow_40_126"/>
<feBlend mode="normal" in="SourceGraphic" in2="effect1_dropShadow_40_126" result="shape"/>
</filter>
</defs>
</svg>
