<svg width="698" height="815" viewBox="0 0 698 815" fill="none" xmlns="http://www.w3.org/2000/svg">
<g filter="url(#filter0_d_40_101)">
<circle cx="348.998" cy="775.866" r="26.7534" fill="white"/>
</g>
<g filter="url(#filter1_d_40_101)">
<rect x="170.174" y="242.21" width="357.649" height="360.465" rx="43" fill="black" fill-opacity="0.64"/>
<rect x="170" y="560" width="358" height="18" fill="#F5A3BB"/>
<rect x="170" y="560" width="358" height="43" rx="21.5" fill="#F5A3BB"/>
</g>
<g filter="url(#filter2_d_40_101)">
<rect x="35" y="31" width="627.998" height="143.623" rx="49" fill="white"/>
</g>
<path d="M284.065 129.978V75.2277H294.715V129.978H284.065ZM248.14 129.978V75.2277H258.79V129.978H248.14ZM256.84 107.253V97.8777H286.015V107.253H256.84ZM326.948 131.403C323.348 131.403 320.173 130.828 317.423 129.678C314.673 128.528 312.348 126.978 310.448 125.028C308.548 123.028 307.098 120.778 306.098 118.278C305.148 115.778 304.673 113.178 304.673 110.478V108.903C304.673 106.103 305.173 103.453 306.173 100.953C307.223 98.4027 308.698 96.1527 310.598 94.2027C312.548 92.2027 314.898 90.6527 317.648 89.5527C320.398 88.4027 323.498 87.8277 326.948 87.8277C330.398 87.8277 333.498 88.4027 336.248 89.5527C338.998 90.6527 341.323 92.2027 343.223 94.2027C345.173 96.1527 346.648 98.4027 347.648 100.953C348.648 103.453 349.148 106.103 349.148 108.903V110.478C349.148 113.178 348.648 115.778 347.648 118.278C346.698 120.778 345.273 123.028 343.373 125.028C341.473 126.978 339.148 128.528 336.398 129.678C333.648 130.828 330.498 131.403 326.948 131.403ZM326.948 122.478C329.498 122.478 331.648 121.928 333.398 120.828C335.148 119.678 336.473 118.153 337.373 116.253C338.273 114.303 338.723 112.103 338.723 109.653C338.723 107.153 338.248 104.953 337.298 103.053C336.398 101.103 335.048 99.5777 333.248 98.4777C331.498 97.3277 329.398 96.7527 326.948 96.7527C324.498 96.7527 322.373 97.3277 320.573 98.4777C318.823 99.5777 317.473 101.103 316.523 103.053C315.573 104.953 315.098 107.153 315.098 109.653C315.098 112.103 315.548 114.303 316.448 116.253C317.398 118.153 318.748 119.678 320.498 120.828C322.248 121.928 324.398 122.478 326.948 122.478ZM375.977 130.503C372.227 130.503 369.127 130.028 366.677 129.078C364.277 128.078 362.477 126.428 361.277 124.128C360.077 121.778 359.477 118.628 359.477 114.678L359.552 77.7777H369.302L369.227 115.353C369.227 117.353 369.752 118.903 370.802 120.003C371.902 121.053 373.452 121.578 375.452 121.578H381.827V130.503H375.977ZM353.027 96.9027V89.2527H381.827V96.9027H353.027ZM408.582 131.403C405.082 131.403 402.007 130.803 399.357 129.603C396.757 128.403 394.582 126.803 392.832 124.803C391.132 122.753 389.832 120.478 388.932 117.978C388.082 115.478 387.657 112.928 387.657 110.328V108.903C387.657 106.203 388.082 103.603 388.932 101.103C389.832 98.5527 391.132 96.3027 392.832 94.3527C394.582 92.3527 396.732 90.7777 399.282 89.6277C401.832 88.4277 404.782 87.8277 408.132 87.8277C412.532 87.8277 416.207 88.8027 419.157 90.7527C422.157 92.6527 424.407 95.1777 425.907 98.3277C427.407 101.428 428.157 104.778 428.157 108.378V112.128H392.082V105.753H421.632L418.407 108.903C418.407 106.303 418.032 104.078 417.282 102.228C416.532 100.378 415.382 98.9527 413.832 97.9527C412.332 96.9527 410.432 96.4527 408.132 96.4527C405.832 96.4527 403.882 96.9777 402.282 98.0277C400.682 99.0777 399.457 100.603 398.607 102.603C397.807 104.553 397.407 106.903 397.407 109.653C397.407 112.203 397.807 114.478 398.607 116.478C399.407 118.428 400.632 119.978 402.282 121.128C403.932 122.228 406.032 122.778 408.582 122.778C411.132 122.778 413.207 122.278 414.807 121.278C416.407 120.228 417.432 118.953 417.882 117.453H427.482C426.882 120.253 425.732 122.703 424.032 124.803C422.332 126.903 420.157 128.528 417.507 129.678C414.907 130.828 411.932 131.403 408.582 131.403ZM437.39 129.978V75.2277H447.815V129.978H437.39ZM432.29 83.0277V75.2277H447.815V83.0277H432.29Z" fill="black"/>
<path d="M304.45 416.5C318.097 416.5 329.2 405.116 329.2 391.125C329.2 377.134 318.097 365.75 304.45 365.75C290.803 365.75 279.7 377.134 279.7 391.125C279.7 405.116 290.803 416.5 304.45 416.5ZM413.35 375.9H344.05C341.315 375.9 339.1 378.171 339.1 380.975V426.65H269.8V360.675C269.8 357.871 267.585 355.6 264.85 355.6H254.95C252.215 355.6 250 357.871 250 360.675V472.325C250 475.129 252.215 477.4 254.95 477.4H264.85C267.585 477.4 269.8 475.129 269.8 472.325V457.1H428.2V472.325C428.2 475.129 430.415 477.4 433.15 477.4H443.05C445.785 477.4 448 475.129 448 472.325V411.425C448 391.804 432.488 375.9 413.35 375.9Z" fill="white"/>
<defs>
<filter id="filter0_d_40_101" x="313.945" y="744.813" width="70.1068" height="70.1067" filterUnits="userSpaceOnUse" color-interpolation-filters="sRGB">
<feFlood flood-opacity="0" result="BackgroundImageFix"/>
<feColorMatrix in="SourceAlpha" type="matrix" values="0 0 0 0 0 0 0 0 0 0 0 0 0 0 0 0 0 0 127 0" result="hardAlpha"/>
<feMorphology radius="2" operator="dilate" in="SourceAlpha" result="effect1_dropShadow_40_101"/>
<feOffset dy="4"/>
<feGaussianBlur stdDeviation="3.15"/>
<feComposite in2="hardAlpha" operator="out"/>
<feColorMatrix type="matrix" values="0 0 0 0 0 0 0 0 0 0 0 0 0 0 0 0 0 0 0.5 0"/>
<feBlend mode="normal" in2="BackgroundImageFix" result="effect1_dropShadow_40_101"/>
<feBlend mode="normal" in="SourceGraphic" in2="effect1_dropShadow_40_101" result="shape"/>
</filter>
<filter id="filter1_d_40_101" x="130.4" y="206.61" width="437.2" height="439.99" filterUnits="userSpaceOnUse" color-interpolation-filters="sRGB">
<feFlood flood-opacity="0" result="BackgroundImageFix"/>
<feColorMatrix in="SourceAlpha" type="matrix" values="0 0 0 0 0 0 0 0 0 0 0 0 0 0 0 0 0 0 127 0" result="hardAlpha"/>
<feOffset dy="4"/>
<feGaussianBlur stdDeviation="19.8"/>
<feComposite in2="hardAlpha" operator="out"/>
<feColorMatrix type="matrix" values="0 0 0 0 0 0 0 0 0 0 0 0 0 0 0 0 0 0 0.7 0"/>
<feBlend mode="normal" in2="BackgroundImageFix" result="effect1_dropShadow_40_101"/>
<feBlend mode="normal" in="SourceGraphic" in2="effect1_dropShadow_40_101" result="shape"/>
</filter>
<filter id="filter2_d_40_101" x="0" y="0" width="697.998" height="213.623" filterUnits="userSpaceOnUse" color-interpolation-filters="sRGB">
<feFlood flood-opacity="0" result="BackgroundImageFix"/>
<feColorMatrix in="SourceAlpha" type="matrix" values="0 0 0 0 0 0 0 0 0 0 0 0 0 0 0 0 0 0 127 0" result="hardAlpha"/>
<feMorphology radius="2" operator="dilate" in="SourceAlpha" result="effect1_dropShadow_40_101"/>
<feOffset dy="4"/>
<feGaussianBlur stdDeviation="16.5"/>
<feComposite in2="hardAlpha" operator="out"/>
<feColorMatrix type="matrix" values="0 0 0 0 0 0 0 0 0 0 0 0 0 0 0 0 0 0 0.7 0"/>
<feBlend mode="normal" in2="BackgroundImageFix" result="effect1_dropShadow_40_101"/>
<feBlend mode="normal" in="SourceGraphic" in2="effect1_dropShadow_40_101" result="shape"/>
</filter>
</defs>
</svg>
