<svg width="2145" height="208" viewBox="0 0 2145 208" fill="none" xmlns="http://www.w3.org/2000/svg">
<path d="M0.9 181.1H9.6C13.6 181.1 16.4 180.2 18 178.4C19.8 176.6 20.7 173.7 20.7 169.7V42.2C20.7 38.2 19.8 35.3 18 33.5C16.4 31.7 13.6 30.8 9.6 30.8H0.9V8.9H54.6L107.4 131L159.9 8.9H213.6V30.8H204.6C200.8 30.8 198 31.7 196.2 33.5C194.6 35.3 193.8 38.2 193.8 42.2V169.7C193.8 173.7 194.6 176.6 196.2 178.4C198 180.2 200.8 181.1 204.6 181.1H213.6V203H142.5V181.1H151.5C155.3 181.1 158 180.3 159.6 178.7C161.4 176.9 162.3 174 162.3 170V61.4L119.4 161.3H95.1L51.9 61.4V170C51.9 173.8 52.8 176.6 54.6 178.4C56.4 180.2 59.2 181.1 63 181.1H72V203H0.9V181.1ZM310.605 207.5C280.405 207.5 258.005 199.2 243.405 182.6C228.805 165.8 221.505 140.5 221.505 106.7C221.505 72.5 228.605 46.9 242.805 29.9C257.205 12.9 279.805 4.39998 310.605 4.39998C341.205 4.39998 363.605 12.9 377.805 29.9C392.205 46.9 399.405 72.5 399.405 106.7C399.405 140.5 392.105 165.8 377.505 182.6C362.905 199.2 340.605 207.5 310.605 207.5ZM310.605 185.3C330.205 185.3 344.705 179.2 354.105 167C363.505 154.8 368.205 134.7 368.205 106.7C368.205 78.1 363.505 57.6 354.105 45.2C344.905 32.8 330.405 26.6 310.605 26.6C290.605 26.6 275.905 32.8 266.505 45.2C257.305 57.6 252.705 78.1 252.705 106.7C252.705 134.7 257.405 154.8 266.805 167C276.205 179.2 290.805 185.3 310.605 185.3ZM448.613 180.8H456.713C461.113 180.8 464.113 180 465.713 178.4C467.513 176.6 468.413 173.8 468.413 170V31.4H440.813C436.813 31.4 433.913 32.3 432.113 34.1C430.313 35.7 429.413 38.4 429.413 42.2V51.8H405.713V9.19999H562.613V51.8H538.913V42.2C538.913 38.2 538.013 35.4 536.213 33.8C534.613 32.2 531.713 31.4 527.513 31.4H500.213V170C500.213 173.8 501.013 176.6 502.613 178.4C504.413 180 507.513 180.8 511.913 180.8H520.013V203H448.613V180.8ZM658.066 207.5C627.866 207.5 605.466 199.2 590.866 182.6C576.266 165.8 568.966 140.5 568.966 106.7C568.966 72.5 576.066 46.9 590.266 29.9C604.666 12.9 627.266 4.39998 658.066 4.39998C688.666 4.39998 711.066 12.9 725.266 29.9C739.666 46.9 746.866 72.5 746.866 106.7C746.866 140.5 739.566 165.8 724.966 182.6C710.366 199.2 688.066 207.5 658.066 207.5ZM658.066 185.3C677.666 185.3 692.166 179.2 701.566 167C710.966 154.8 715.666 134.7 715.666 106.7C715.666 78.1 710.966 57.6 701.566 45.2C692.366 32.8 677.866 26.6 658.066 26.6C638.066 26.6 623.366 32.8 613.966 45.2C604.766 57.6 600.166 78.1 600.166 106.7C600.166 134.7 604.866 154.8 614.266 167C623.666 179.2 638.266 185.3 658.066 185.3ZM753.244 181.1H761.344C765.744 181.1 768.744 180.2 770.344 178.4C772.144 176.6 773.044 173.8 773.044 170V41.9C773.044 38.1 772.144 35.4 770.344 33.8C768.744 32 765.744 31.1 761.344 31.1H753.244V8.9H851.344C871.544 8.9 887.244 13.9 898.444 23.9C909.644 33.7 915.244 47.7 915.244 65.9C915.244 80.9 911.144 93.4 902.944 103.4C894.744 113.2 883.144 119.5 868.144 122.3L894.544 171.5C896.544 175.1 898.844 177.6 901.444 179C904.244 180.4 907.744 181.1 911.944 181.1H920.044V203H854.344V181.1H868.744L838.744 125.3H804.844V170.6C804.844 174.4 805.544 177.1 806.944 178.7C808.544 180.3 811.344 181.1 815.344 181.1H822.244V203H753.244V181.1ZM846.544 103.1C859.144 103.1 868.544 99.9 874.744 93.5C881.144 87.1 884.344 77.9 884.344 65.9C884.344 53.5 881.344 44.6 875.344 39.2C869.344 33.8 859.744 31.1 846.544 31.1H804.844V103.1H846.544ZM1125.96 180.8H1134.06C1138.46 180.8 1141.46 180 1143.06 178.4C1144.86 176.6 1145.76 173.8 1145.76 170V31.4H1118.16C1114.16 31.4 1111.26 32.3 1109.46 34.1C1107.66 35.7 1106.76 38.4 1106.76 42.2V51.8H1083.06V9.19999H1239.96V51.8H1216.26V42.2C1216.26 38.2 1215.36 35.4 1213.56 33.8C1211.96 32.2 1209.06 31.4 1204.86 31.4H1177.56V170C1177.56 173.8 1178.36 176.6 1179.96 178.4C1181.76 180 1184.86 180.8 1189.26 180.8H1197.36V203H1125.96V180.8ZM1252.46 181.1H1260.56C1264.96 181.1 1267.96 180.2 1269.56 178.4C1271.36 176.6 1272.26 173.8 1272.26 170V41.9C1272.26 38.1 1271.36 35.4 1269.56 33.8C1267.96 32 1264.96 31.1 1260.56 31.1H1252.46V8.9H1350.56C1370.76 8.9 1386.46 13.9 1397.66 23.9C1408.86 33.7 1414.46 47.7 1414.46 65.9C1414.46 80.9 1410.36 93.4 1402.16 103.4C1393.96 113.2 1382.36 119.5 1367.36 122.3L1393.76 171.5C1395.76 175.1 1398.06 177.6 1400.66 179C1403.46 180.4 1406.96 181.1 1411.16 181.1H1419.26V203H1353.56V181.1H1367.96L1337.96 125.3H1304.06V170.6C1304.06 174.4 1304.76 177.1 1306.16 178.7C1307.76 180.3 1310.56 181.1 1314.56 181.1H1321.46V203H1252.46V181.1ZM1345.76 103.1C1358.36 103.1 1367.76 99.9 1373.96 93.5C1380.36 87.1 1383.56 77.9 1383.56 65.9C1383.56 53.5 1380.56 44.6 1374.56 39.2C1368.56 33.8 1358.96 31.1 1345.76 31.1H1304.06V103.1H1345.76ZM1431.47 181.1H1440.77C1445.37 181.1 1448.87 180.3 1451.27 178.7C1453.87 177.1 1455.87 174.3 1457.27 170.3L1514.57 8.9H1544.87L1601.57 170.3C1602.97 174.3 1604.97 177.1 1607.57 178.7C1610.17 180.3 1613.77 181.1 1618.37 181.1H1627.37V203H1558.97V181.1H1573.97L1560.77 142.7H1498.37L1485.17 181.1H1500.17V203H1431.47V181.1ZM1554.77 123.8L1529.87 50.6L1504.37 123.8H1554.77ZM1639.47 181.4H1646.37C1650.37 181.4 1653.17 180.5 1654.77 178.7C1656.57 176.9 1657.47 174 1657.47 170V41.6C1657.47 37.8 1656.57 35.1 1654.77 33.5C1653.17 31.7 1650.37 30.8 1646.37 30.8H1639.47V8.9H1725.87C1753.67 8.9 1774.27 17.4 1787.67 34.4C1801.27 51.4 1808.07 75.5 1808.07 106.7C1808.07 135.9 1801.07 159.3 1787.07 176.9C1773.27 194.3 1752.87 203 1725.87 203H1639.47V181.4ZM1721.67 181.4C1741.27 181.4 1755.37 175.2 1763.97 162.8C1772.57 150.4 1776.87 131.7 1776.87 106.7C1776.87 81.1 1772.57 62 1763.97 49.4C1755.37 36.8 1741.27 30.5 1721.67 30.5H1689.27V181.4H1721.67ZM1814.38 181.1H1823.08C1827.08 181.1 1829.88 180.2 1831.48 178.4C1833.28 176.6 1834.18 173.7 1834.18 169.7V41.9C1834.18 38.1 1833.28 35.4 1831.48 33.8C1829.88 32 1827.08 31.1 1823.08 31.1H1814.38V8.9H1958.08V47.6H1929.28V41.6C1929.28 37.8 1928.38 35.1 1926.58 33.5C1924.78 31.7 1921.88 30.8 1917.88 30.8H1865.98V94.7H1917.88V116.9H1865.98V181.1H1917.88C1921.88 181.1 1924.78 180.3 1926.58 178.7C1928.38 176.9 1929.28 174 1929.28 170V164H1958.08V203H1814.38V181.1ZM1977.85 181.1H1985.95C1990.35 181.1 1993.35 180.2 1994.95 178.4C1996.75 176.6 1997.65 173.8 1997.65 170V41.9C1997.65 38.1 1996.75 35.4 1994.95 33.8C1993.35 32 1990.35 31.1 1985.95 31.1H1977.85V8.9H2075.95C2096.15 8.9 2111.85 13.9 2123.05 23.9C2134.25 33.7 2139.85 47.7 2139.85 65.9C2139.85 80.9 2135.75 93.4 2127.55 103.4C2119.35 113.2 2107.75 119.5 2092.75 122.3L2119.15 171.5C2121.15 175.1 2123.45 177.6 2126.05 179C2128.85 180.4 2132.35 181.1 2136.55 181.1H2144.65V203H2078.95V181.1H2093.35L2063.35 125.3H2029.45V170.6C2029.45 174.4 2030.15 177.1 2031.55 178.7C2033.15 180.3 2035.95 181.1 2039.95 181.1H2046.85V203H1977.85V181.1ZM2071.15 103.1C2083.75 103.1 2093.15 99.9 2099.35 93.5C2105.75 87.1 2108.95 77.9 2108.95 65.9C2108.95 53.5 2105.95 44.6 2099.95 39.2C2093.95 33.8 2084.35 31.1 2071.15 31.1H2029.45V103.1H2071.15Z" fill="black"/>
<path d="M1012.46 0.199982H1068.56L993.565 203H937.465L1012.46 0.199982Z" fill="#E5474D"/>
</svg>
