<svg width="698" height="815" viewBox="0 0 698 815" fill="none" xmlns="http://www.w3.org/2000/svg">
<g filter="url(#filter0_d_40_102)">
<circle cx="348.998" cy="775.866" r="26.7534" fill="white"/>
</g>
<g filter="url(#filter1_d_40_102)">
<rect x="170.174" y="242.21" width="357.649" height="360.465" rx="43" fill="black" fill-opacity="0.64"/>
<rect x="170" y="560" width="358" height="18" fill="#E6D8BE"/>
<rect x="170" y="560" width="358" height="43" rx="21.5" fill="#E6D8BE"/>
</g>
<g filter="url(#filter2_d_40_102)">
<rect x="35" y="31" width="627.998" height="143.623" rx="49" fill="white"/>
</g>
<path d="M141.131 131.403C136.281 131.403 132.181 130.628 128.831 129.078C125.531 127.528 123.006 125.403 121.256 122.703C119.506 119.953 118.631 116.853 118.631 113.403H129.056C129.056 114.853 129.456 116.278 130.256 117.678C131.056 119.028 132.331 120.128 134.081 120.978C135.881 121.828 138.231 122.253 141.131 122.253C143.731 122.253 145.906 121.878 147.656 121.128C149.406 120.378 150.706 119.403 151.556 118.203C152.406 116.953 152.831 115.553 152.831 114.003C152.831 112.053 152.006 110.503 150.356 109.353C148.706 108.153 146.156 107.403 142.706 107.103L137.906 106.728C132.656 106.278 128.456 104.653 125.306 101.853C122.206 99.0027 120.656 95.2527 120.656 90.6027C120.656 87.1027 121.481 84.1027 123.131 81.6027C124.781 79.0527 127.081 77.1027 130.031 75.7527C133.031 74.3527 136.531 73.6527 140.531 73.6527C144.681 73.6527 148.256 74.3777 151.256 75.8277C154.256 77.2777 156.581 79.3277 158.231 81.9777C159.881 84.5777 160.706 87.6527 160.706 91.2027H150.281C150.281 89.7027 149.906 88.3277 149.156 87.0777C148.456 85.7777 147.381 84.7527 145.931 84.0027C144.531 83.2027 142.731 82.8027 140.531 82.8027C138.431 82.8027 136.681 83.1527 135.281 83.8527C133.881 84.5527 132.831 85.5027 132.131 86.7027C131.431 87.9027 131.081 89.2027 131.081 90.6027C131.081 92.3027 131.706 93.8027 132.956 95.1027C134.206 96.3527 136.181 97.0777 138.881 97.2777L143.681 97.7277C147.581 98.0277 151.006 98.8527 153.956 100.203C156.906 101.553 159.181 103.378 160.781 105.678C162.431 107.978 163.256 110.753 163.256 114.003C163.256 117.453 162.356 120.503 160.556 123.153C158.756 125.753 156.181 127.778 152.831 129.228C149.531 130.678 145.631 131.403 141.131 131.403ZM172.168 129.978V75.2277H182.593V107.178H180.793C180.793 103.078 181.318 99.6027 182.368 96.7527C183.418 93.9027 184.968 91.7277 187.018 90.2277C189.118 88.7277 191.768 87.9777 194.968 87.9777H195.418C200.068 87.9777 203.593 89.5777 205.993 92.7777C208.393 95.9777 209.593 100.628 209.593 106.728V129.978H199.168V105.753C199.168 103.153 198.418 101.103 196.918 99.6027C195.468 98.1027 193.543 97.3527 191.143 97.3527C188.593 97.3527 186.518 98.2027 184.918 99.9027C183.368 101.553 182.593 103.728 182.593 106.428V129.978H172.168ZM240.376 131.403C236.776 131.403 233.601 130.828 230.851 129.678C228.101 128.528 225.776 126.978 223.876 125.028C221.976 123.028 220.526 120.778 219.526 118.278C218.576 115.778 218.101 113.178 218.101 110.478V108.903C218.101 106.103 218.601 103.453 219.601 100.953C220.651 98.4027 222.126 96.1527 224.026 94.2027C225.976 92.2027 228.326 90.6527 231.076 89.5527C233.826 88.4027 236.926 87.8277 240.376 87.8277C243.826 87.8277 246.926 88.4027 249.676 89.5527C252.426 90.6527 254.751 92.2027 256.651 94.2027C258.601 96.1527 260.076 98.4027 261.076 100.953C262.076 103.453 262.576 106.103 262.576 108.903V110.478C262.576 113.178 262.076 115.778 261.076 118.278C260.126 120.778 258.701 123.028 256.801 125.028C254.901 126.978 252.576 128.528 249.826 129.678C247.076 130.828 243.926 131.403 240.376 131.403ZM240.376 122.478C242.926 122.478 245.076 121.928 246.826 120.828C248.576 119.678 249.901 118.153 250.801 116.253C251.701 114.303 252.151 112.103 252.151 109.653C252.151 107.153 251.676 104.953 250.726 103.053C249.826 101.103 248.476 99.5777 246.676 98.4777C244.926 97.3277 242.826 96.7527 240.376 96.7527C237.926 96.7527 235.801 97.3277 234.001 98.4777C232.251 99.5777 230.901 101.103 229.951 103.053C229.001 104.953 228.526 107.153 228.526 109.653C228.526 112.103 228.976 114.303 229.876 116.253C230.826 118.153 232.176 119.678 233.926 120.828C235.676 121.928 237.826 122.478 240.376 122.478ZM284.775 129.978L292.5 90.6027H304.5L313.425 129.978H305.175L296.1 90.8277H300.45L292.425 129.978H284.775ZM281.7 129.978L281.625 121.428H289.95V129.978H281.7ZM277.5 129.978L266.4 89.2527H276.525L287.1 129.978H277.5ZM307.8 129.978V121.428H316.125L316.05 129.978H307.8ZM311.1 129.978L320.475 89.2527H329.925L320.1 129.978H311.1ZM338.135 129.978V89.2527H346.385V106.503H346.16C346.16 100.653 347.41 96.2277 349.91 93.2277C352.41 90.2277 356.085 88.7277 360.935 88.7277H362.435V97.8027H359.585C356.085 97.8027 353.36 98.7527 351.41 100.653C349.51 102.503 348.56 105.203 348.56 108.753V129.978H338.135ZM388.691 131.403C385.091 131.403 381.916 130.828 379.166 129.678C376.416 128.528 374.091 126.978 372.191 125.028C370.291 123.028 368.841 120.778 367.841 118.278C366.891 115.778 366.416 113.178 366.416 110.478V108.903C366.416 106.103 366.916 103.453 367.916 100.953C368.966 98.4027 370.441 96.1527 372.341 94.2027C374.291 92.2027 376.641 90.6527 379.391 89.5527C382.141 88.4027 385.241 87.8277 388.691 87.8277C392.141 87.8277 395.241 88.4027 397.991 89.5527C400.741 90.6527 403.066 92.2027 404.966 94.2027C406.916 96.1527 408.391 98.4027 409.391 100.953C410.391 103.453 410.891 106.103 410.891 108.903V110.478C410.891 113.178 410.391 115.778 409.391 118.278C408.441 120.778 407.016 123.028 405.116 125.028C403.216 126.978 400.891 128.528 398.141 129.678C395.391 130.828 392.241 131.403 388.691 131.403ZM388.691 122.478C391.241 122.478 393.391 121.928 395.141 120.828C396.891 119.678 398.216 118.153 399.116 116.253C400.016 114.303 400.466 112.103 400.466 109.653C400.466 107.153 399.991 104.953 399.041 103.053C398.141 101.103 396.791 99.5777 394.991 98.4777C393.241 97.3277 391.141 96.7527 388.691 96.7527C386.241 96.7527 384.116 97.3277 382.316 98.4777C380.566 99.5777 379.216 101.103 378.266 103.053C377.316 104.953 376.841 107.153 376.841 109.653C376.841 112.103 377.291 114.303 378.191 116.253C379.141 118.153 380.491 119.678 382.241 120.828C383.991 121.928 386.141 122.478 388.691 122.478ZM439.595 131.403C435.995 131.403 432.82 130.828 430.07 129.678C427.32 128.528 424.995 126.978 423.095 125.028C421.195 123.028 419.745 120.778 418.745 118.278C417.795 115.778 417.32 113.178 417.32 110.478V108.903C417.32 106.103 417.82 103.453 418.82 100.953C419.87 98.4027 421.345 96.1527 423.245 94.2027C425.195 92.2027 427.545 90.6527 430.295 89.5527C433.045 88.4027 436.145 87.8277 439.595 87.8277C443.045 87.8277 446.145 88.4027 448.895 89.5527C451.645 90.6527 453.97 92.2027 455.87 94.2027C457.82 96.1527 459.295 98.4027 460.295 100.953C461.295 103.453 461.795 106.103 461.795 108.903V110.478C461.795 113.178 461.295 115.778 460.295 118.278C459.345 120.778 457.92 123.028 456.02 125.028C454.12 126.978 451.795 128.528 449.045 129.678C446.295 130.828 443.145 131.403 439.595 131.403ZM439.595 122.478C442.145 122.478 444.295 121.928 446.045 120.828C447.795 119.678 449.12 118.153 450.02 116.253C450.92 114.303 451.37 112.103 451.37 109.653C451.37 107.153 450.895 104.953 449.945 103.053C449.045 101.103 447.695 99.5777 445.895 98.4777C444.145 97.3277 442.045 96.7527 439.595 96.7527C437.145 96.7527 435.02 97.3277 433.22 98.4777C431.47 99.5777 430.12 101.103 429.17 103.053C428.22 104.953 427.745 107.153 427.745 109.653C427.745 112.103 428.195 114.303 429.095 116.253C430.045 118.153 431.395 119.678 433.145 120.828C434.895 121.928 437.045 122.478 439.595 122.478ZM470.923 129.978V89.2527H479.173V106.728H478.423C478.423 102.628 478.948 99.2027 479.998 96.4527C481.048 93.6527 482.598 91.5527 484.648 90.1527C486.748 88.7027 489.348 87.9777 492.448 87.9777H492.898C496.048 87.9777 498.648 88.7027 500.698 90.1527C502.798 91.5527 504.348 93.6527 505.348 96.4527C506.398 99.2027 506.923 102.628 506.923 106.728H504.298C504.298 102.628 504.823 99.2027 505.873 96.4527C506.973 93.6527 508.548 91.5527 510.598 90.1527C512.698 88.7027 515.298 87.9777 518.398 87.9777H518.848C521.998 87.9777 524.623 88.7027 526.723 90.1527C528.823 91.5527 530.398 93.6527 531.448 96.4527C532.548 99.2027 533.098 102.628 533.098 106.728V129.978H522.673V105.753C522.673 103.203 522.023 101.178 520.723 99.6777C519.423 98.1277 517.573 97.3527 515.173 97.3527C512.773 97.3527 510.848 98.1527 509.398 99.7527C507.948 101.303 507.223 103.403 507.223 106.053V129.978H496.798V105.753C496.798 103.203 496.148 101.178 494.848 99.6777C493.548 98.1277 491.698 97.3527 489.298 97.3527C486.898 97.3527 484.973 98.1527 483.523 99.7527C482.073 101.303 481.348 103.403 481.348 106.053V129.978H470.923ZM559.014 131.253C553.414 131.253 549.014 130.078 545.814 127.728C542.664 125.328 541.014 122.028 540.864 117.828H550.239C550.389 119.228 551.164 120.503 552.564 121.653C553.964 122.803 556.164 123.378 559.164 123.378C561.664 123.378 563.639 122.928 565.089 122.028C566.589 121.128 567.339 119.903 567.339 118.353C567.339 117.003 566.764 115.928 565.614 115.128C564.514 114.328 562.614 113.803 559.914 113.553L556.314 113.178C551.764 112.678 548.264 111.378 545.814 109.278C543.364 107.178 542.139 104.378 542.139 100.878C542.139 98.0777 542.839 95.7277 544.239 93.8277C545.639 91.9277 547.564 90.5027 550.014 89.5527C552.514 88.5527 555.364 88.0527 558.564 88.0527C563.564 88.0527 567.614 89.1527 570.714 91.3527C573.814 93.5527 575.439 96.7777 575.589 101.028H566.214C566.114 99.6277 565.414 98.4277 564.114 97.4277C562.814 96.4277 560.939 95.9277 558.489 95.9277C556.289 95.9277 554.589 96.3527 553.389 97.2027C552.189 98.0527 551.589 99.1527 551.589 100.503C551.589 101.803 552.064 102.803 553.014 103.503C554.014 104.203 555.614 104.678 557.814 104.928L561.414 105.303C566.214 105.803 569.964 107.128 572.664 109.278C575.414 111.428 576.789 114.328 576.789 117.978C576.789 120.678 576.039 123.028 574.539 125.028C573.089 126.978 571.039 128.503 568.389 129.603C565.739 130.703 562.614 131.253 559.014 131.253Z" fill="black"/>
<path d="M409.689 398.636L405.989 389.384L399.427 372.979C393.794 358.897 380.358 349.801 365.19 349.801H323.377C308.213 349.801 294.773 358.897 289.14 372.979L282.579 389.384L278.878 398.636C270.937 401.655 265.268 409.28 265.268 418.281V434.084C265.268 439.392 267.296 444.182 270.535 447.889V465.691C270.535 471.508 275.253 476.226 281.071 476.226H291.606C297.424 476.226 302.142 471.508 302.142 465.691V455.155H386.426V465.691C386.426 471.508 391.143 476.226 396.961 476.226H407.496C413.314 476.226 418.032 471.508 418.032 465.691V447.889C421.272 444.185 423.3 439.395 423.3 434.084V418.281C423.3 409.28 417.63 401.655 409.689 398.636ZM308.703 380.805C311.103 374.806 316.914 370.872 323.377 370.872H365.19C371.653 370.872 377.464 374.806 379.864 380.805L386.426 397.21H302.142L308.703 380.805ZM291.606 434.019C285.285 434.019 281.071 429.818 281.071 423.516C281.071 417.215 285.285 413.013 291.606 413.013C297.928 413.013 307.409 422.466 307.409 428.767C307.409 435.069 297.928 434.019 291.606 434.019ZM396.961 434.019C390.64 434.019 381.158 435.069 381.158 428.767C381.158 422.466 390.64 413.013 396.961 413.013C403.282 413.013 407.496 417.215 407.496 423.516C407.496 429.818 403.282 434.019 396.961 434.019Z" fill="white"/>
<path d="M430.048 314.395L424.285 326.081L411.39 327.961C409.078 328.296 408.151 331.147 409.828 332.78L419.157 341.871L416.95 354.713C416.553 357.034 418.998 358.773 421.046 357.687L432.581 351.623L444.117 357.687C446.165 358.764 448.609 357.034 448.212 354.713L446.006 341.871L455.335 332.78C457.012 331.147 456.085 328.296 453.773 327.961L440.878 326.081L435.114 314.395C434.082 312.312 431.09 312.286 430.048 314.395Z" fill="white"/>
<defs>
<filter id="filter0_d_40_102" x="313.945" y="744.813" width="70.1068" height="70.1067" filterUnits="userSpaceOnUse" color-interpolation-filters="sRGB">
<feFlood flood-opacity="0" result="BackgroundImageFix"/>
<feColorMatrix in="SourceAlpha" type="matrix" values="0 0 0 0 0 0 0 0 0 0 0 0 0 0 0 0 0 0 127 0" result="hardAlpha"/>
<feMorphology radius="2" operator="dilate" in="SourceAlpha" result="effect1_dropShadow_40_102"/>
<feOffset dy="4"/>
<feGaussianBlur stdDeviation="3.15"/>
<feComposite in2="hardAlpha" operator="out"/>
<feColorMatrix type="matrix" values="0 0 0 0 0 0 0 0 0 0 0 0 0 0 0 0 0 0 0.5 0"/>
<feBlend mode="normal" in2="BackgroundImageFix" result="effect1_dropShadow_40_102"/>
<feBlend mode="normal" in="SourceGraphic" in2="effect1_dropShadow_40_102" result="shape"/>
</filter>
<filter id="filter1_d_40_102" x="130.4" y="206.61" width="437.2" height="439.99" filterUnits="userSpaceOnUse" color-interpolation-filters="sRGB">
<feFlood flood-opacity="0" result="BackgroundImageFix"/>
<feColorMatrix in="SourceAlpha" type="matrix" values="0 0 0 0 0 0 0 0 0 0 0 0 0 0 0 0 0 0 127 0" result="hardAlpha"/>
<feOffset dy="4"/>
<feGaussianBlur stdDeviation="19.8"/>
<feComposite in2="hardAlpha" operator="out"/>
<feColorMatrix type="matrix" values="0 0 0 0 0 0 0 0 0 0 0 0 0 0 0 0 0 0 0.7 0"/>
<feBlend mode="normal" in2="BackgroundImageFix" result="effect1_dropShadow_40_102"/>
<feBlend mode="normal" in="SourceGraphic" in2="effect1_dropShadow_40_102" result="shape"/>
</filter>
<filter id="filter2_d_40_102" x="0" y="0" width="697.998" height="213.623" filterUnits="userSpaceOnUse" color-interpolation-filters="sRGB">
<feFlood flood-opacity="0" result="BackgroundImageFix"/>
<feColorMatrix in="SourceAlpha" type="matrix" values="0 0 0 0 0 0 0 0 0 0 0 0 0 0 0 0 0 0 127 0" result="hardAlpha"/>
<feMorphology radius="2" operator="dilate" in="SourceAlpha" result="effect1_dropShadow_40_102"/>
<feOffset dy="4"/>
<feGaussianBlur stdDeviation="16.5"/>
<feComposite in2="hardAlpha" operator="out"/>
<feColorMatrix type="matrix" values="0 0 0 0 0 0 0 0 0 0 0 0 0 0 0 0 0 0 0.7 0"/>
<feBlend mode="normal" in2="BackgroundImageFix" result="effect1_dropShadow_40_102"/>
<feBlend mode="normal" in="SourceGraphic" in2="effect1_dropShadow_40_102" result="shape"/>
</filter>
</defs>
</svg>
