<svg width="874" height="815" viewBox="0 0 874 815" fill="none" xmlns="http://www.w3.org/2000/svg">
<g filter="url(#filter0_d_40_182)">
<circle cx="439.753" cy="775.753" r="26.7534" fill="white"/>
</g>
<g filter="url(#filter1_d_40_182)">
<rect x="261.174" y="242.21" width="357.649" height="360.465" rx="43" fill="black" fill-opacity="0.64"/>
<rect x="261" y="560" width="358" height="18" fill="#F69A57"/>
<rect x="261" y="560" width="358" height="43" rx="21.5" fill="#F69A57"/>
</g>
<g filter="url(#filter2_d_40_182)">
<rect x="35" y="31" width="804" height="144" rx="49" fill="white"/>
</g>
<path d="M175.168 129V82.125H185.818V129H175.168ZM159.343 83.625V74.25H201.643V83.625H159.343ZM219.898 130.275C215.198 130.275 211.548 128.725 208.948 125.625C206.398 122.525 205.123 117.925 205.123 111.825V88.2H215.548V112.725C215.548 115.225 216.248 117.225 217.648 118.725C219.048 120.175 220.948 120.9 223.348 120.9C225.748 120.9 227.698 120.125 229.198 118.575C230.748 117.025 231.523 114.925 231.523 112.275V88.2H241.948V129H233.698V111.675H234.523C234.523 115.775 233.998 119.2 232.948 121.95C231.898 124.7 230.323 126.775 228.223 128.175C226.123 129.575 223.498 130.275 220.348 130.275H219.898ZM253.924 129V88.275H262.174V105.75H261.424C261.424 101.6 261.974 98.15 263.074 95.4C264.174 92.6 265.799 90.5 267.949 89.1C270.149 87.7 272.874 87 276.124 87H276.574C281.424 87 285.099 88.575 287.599 91.725C290.099 94.825 291.349 99.475 291.349 105.675V129H280.924V104.775C280.924 102.275 280.199 100.25 278.749 98.7C277.349 97.15 275.399 96.375 272.899 96.375C270.349 96.375 268.274 97.175 266.674 98.775C265.124 100.325 264.349 102.425 264.349 105.075V129H253.924ZM304.506 129V88.275H314.931V129H304.506ZM298.806 96.075V88.275H314.931V96.075H298.806ZM308.331 83.4C306.281 83.4 304.756 82.875 303.756 81.825C302.806 80.725 302.331 79.375 302.331 77.775C302.331 76.075 302.806 74.7 303.756 73.65C304.756 72.6 306.281 72.075 308.331 72.075C310.381 72.075 311.881 72.6 312.831 73.65C313.781 74.7 314.256 76.075 314.256 77.775C314.256 79.375 313.781 80.725 312.831 81.825C311.881 82.875 310.381 83.4 308.331 83.4ZM326.946 129V88.275H335.196V105.75H334.446C334.446 101.6 334.996 98.15 336.096 95.4C337.196 92.6 338.821 90.5 340.971 89.1C343.171 87.7 345.896 87 349.146 87H349.596C354.446 87 358.121 88.575 360.621 91.725C363.121 94.825 364.371 99.475 364.371 105.675V129H353.946V104.775C353.946 102.275 353.221 100.25 351.771 98.7C350.371 97.15 348.421 96.375 345.921 96.375C343.371 96.375 341.296 97.175 339.696 98.775C338.146 100.325 337.371 102.425 337.371 105.075V129H326.946ZM391.479 145.05C389.529 145.05 387.529 144.975 385.479 144.825C383.479 144.675 381.604 144.475 379.854 144.225V135.525C381.654 135.725 383.579 135.9 385.629 136.05C387.679 136.25 389.604 136.35 391.404 136.35C394.754 136.35 397.454 135.95 399.504 135.15C401.604 134.35 403.129 133.075 404.079 131.325C405.079 129.625 405.579 127.45 405.579 124.8V116.775L407.829 111.675C407.679 115.425 406.904 118.625 405.504 121.275C404.104 123.875 402.204 125.875 399.804 127.275C397.404 128.625 394.629 129.3 391.479 129.3C388.679 129.3 386.129 128.775 383.829 127.725C381.579 126.675 379.629 125.225 377.979 123.375C376.379 121.525 375.129 119.35 374.229 116.85C373.329 114.35 372.879 111.675 372.879 108.825V107.25C372.879 104.4 373.329 101.75 374.229 99.3C375.179 96.8 376.504 94.625 378.204 92.775C379.904 90.925 381.929 89.5 384.279 88.5C386.629 87.5 389.229 87 392.079 87C395.429 87 398.329 87.725 400.779 89.175C403.279 90.625 405.229 92.725 406.629 95.475C408.029 98.225 408.804 101.6 408.954 105.6L407.154 105.9V88.275H415.404V124.2C415.404 129.15 414.554 133.15 412.854 136.2C411.154 139.25 408.529 141.475 404.979 142.875C401.479 144.325 396.979 145.05 391.479 145.05ZM394.479 120.375C396.479 120.375 398.304 119.925 399.954 119.025C401.604 118.125 402.929 116.825 403.929 115.125C404.929 113.425 405.429 111.375 405.429 108.975V106.35C405.429 104.05 404.904 102.1 403.854 100.5C402.854 98.9 401.529 97.7 399.879 96.9C398.229 96.05 396.429 95.625 394.479 95.625C392.279 95.625 390.329 96.15 388.629 97.2C386.979 98.2 385.679 99.625 384.729 101.475C383.779 103.325 383.304 105.525 383.304 108.075C383.304 110.575 383.779 112.75 384.729 114.6C385.679 116.45 386.979 117.875 388.629 118.875C390.329 119.875 392.279 120.375 394.479 120.375ZM469.287 130.425C464.587 130.425 460.437 129.65 456.837 128.1C453.287 126.5 450.287 124.375 447.837 121.725C445.437 119.025 443.612 116 442.362 112.65C441.162 109.25 440.562 105.725 440.562 102.075V100.425C440.562 96.975 441.162 93.6 442.362 90.3C443.562 87 445.312 84.025 447.612 81.375C449.962 78.725 452.837 76.625 456.237 75.075C459.687 73.475 463.637 72.675 468.087 72.675C472.887 72.675 477.137 73.575 480.837 75.375C484.537 77.125 487.512 79.6 489.762 82.8C492.012 85.95 493.337 89.625 493.737 93.825H483.012C482.662 91.475 481.787 89.475 480.387 87.825C478.987 86.125 477.212 84.825 475.062 83.925C472.962 83.025 470.637 82.575 468.087 82.575C465.537 82.575 463.212 83.025 461.112 83.925C459.062 84.825 457.312 86.1 455.862 87.75C454.412 89.4 453.287 91.375 452.487 93.675C451.737 95.975 451.362 98.525 451.362 101.325C451.362 104.375 451.787 107.1 452.637 109.5C453.487 111.9 454.687 113.95 456.237 115.65C457.787 117.3 459.662 118.575 461.862 119.475C464.062 120.325 466.537 120.75 469.287 120.75C472.937 120.75 476.137 120 478.887 118.5C481.637 116.95 483.637 114.95 484.887 112.5L483.012 121.125V107.025H492.837V119.175C490.487 122.725 487.287 125.5 483.237 127.5C479.187 129.45 474.537 130.425 469.287 130.425ZM467.562 109.125V101.175H497.412V109.125H467.562ZM530.039 129V116.925H528.314V103.5C528.314 101.15 527.739 99.4 526.589 98.25C525.439 97.1 523.664 96.525 521.264 96.525C520.014 96.525 518.514 96.55 516.764 96.6C515.014 96.65 513.239 96.725 511.439 96.825C509.689 96.875 508.114 96.95 506.714 97.05V88.2C507.864 88.1 509.164 88 510.614 87.9C512.064 87.8 513.539 87.75 515.039 87.75C516.589 87.7 518.039 87.675 519.389 87.675C523.589 87.675 527.064 88.225 529.814 89.325C532.614 90.425 534.714 92.15 536.114 94.5C537.564 96.85 538.289 99.925 538.289 103.725V129H530.039ZM516.914 130.05C513.964 130.05 511.364 129.525 509.114 128.475C506.914 127.425 505.189 125.925 503.939 123.975C502.739 122.025 502.139 119.675 502.139 116.925C502.139 113.925 502.864 111.475 504.314 109.575C505.814 107.675 507.889 106.25 510.539 105.3C513.239 104.35 516.389 103.875 519.989 103.875H529.439V110.1H519.839C517.439 110.1 515.589 110.7 514.289 111.9C513.039 113.05 512.414 114.55 512.414 116.4C512.414 118.25 513.039 119.75 514.289 120.9C515.589 122.05 517.439 122.625 519.839 122.625C521.289 122.625 522.614 122.375 523.814 121.875C525.064 121.325 526.089 120.425 526.889 119.175C527.739 117.875 528.214 116.125 528.314 113.925L530.864 116.85C530.614 119.7 529.914 122.1 528.764 124.05C527.664 126 526.114 127.5 524.114 128.55C522.164 129.55 519.764 130.05 516.914 130.05ZM549.456 129V88.275H557.706V105.525H557.481C557.481 99.675 558.731 95.25 561.231 92.25C563.731 89.25 567.406 87.75 572.256 87.75H573.756V96.825H570.906C567.406 96.825 564.681 97.775 562.731 99.675C560.831 101.525 559.881 104.225 559.881 107.775V129H549.456ZM605.186 129V116.925H603.461V103.5C603.461 101.15 602.886 99.4 601.736 98.25C600.586 97.1 598.811 96.525 596.411 96.525C595.161 96.525 593.661 96.55 591.911 96.6C590.161 96.65 588.386 96.725 586.586 96.825C584.836 96.875 583.261 96.95 581.861 97.05V88.2C583.011 88.1 584.311 88 585.761 87.9C587.211 87.8 588.686 87.75 590.186 87.75C591.736 87.7 593.186 87.675 594.536 87.675C598.736 87.675 602.211 88.225 604.961 89.325C607.761 90.425 609.861 92.15 611.261 94.5C612.711 96.85 613.436 99.925 613.436 103.725V129H605.186ZM592.061 130.05C589.111 130.05 586.511 129.525 584.261 128.475C582.061 127.425 580.336 125.925 579.086 123.975C577.886 122.025 577.286 119.675 577.286 116.925C577.286 113.925 578.011 111.475 579.461 109.575C580.961 107.675 583.036 106.25 585.686 105.3C588.386 104.35 591.536 103.875 595.136 103.875H604.586V110.1H594.986C592.586 110.1 590.736 110.7 589.436 111.9C588.186 113.05 587.561 114.55 587.561 116.4C587.561 118.25 588.186 119.75 589.436 120.9C590.736 122.05 592.586 122.625 594.986 122.625C596.436 122.625 597.761 122.375 598.961 121.875C600.211 121.325 601.236 120.425 602.036 119.175C602.886 117.875 603.361 116.125 603.461 113.925L606.011 116.85C605.761 119.7 605.061 122.1 603.911 124.05C602.811 126 601.261 127.5 599.261 128.55C597.311 129.55 594.911 130.05 592.061 130.05ZM640.502 145.05C638.552 145.05 636.552 144.975 634.502 144.825C632.502 144.675 630.627 144.475 628.877 144.225V135.525C630.677 135.725 632.602 135.9 634.652 136.05C636.702 136.25 638.627 136.35 640.427 136.35C643.777 136.35 646.477 135.95 648.527 135.15C650.627 134.35 652.152 133.075 653.102 131.325C654.102 129.625 654.602 127.45 654.602 124.8V116.775L656.852 111.675C656.702 115.425 655.927 118.625 654.527 121.275C653.127 123.875 651.227 125.875 648.827 127.275C646.427 128.625 643.652 129.3 640.502 129.3C637.702 129.3 635.152 128.775 632.852 127.725C630.602 126.675 628.652 125.225 627.002 123.375C625.402 121.525 624.152 119.35 623.252 116.85C622.352 114.35 621.902 111.675 621.902 108.825V107.25C621.902 104.4 622.352 101.75 623.252 99.3C624.202 96.8 625.527 94.625 627.227 92.775C628.927 90.925 630.952 89.5 633.302 88.5C635.652 87.5 638.252 87 641.102 87C644.452 87 647.352 87.725 649.802 89.175C652.302 90.625 654.252 92.725 655.652 95.475C657.052 98.225 657.827 101.6 657.977 105.6L656.177 105.9V88.275H664.427V124.2C664.427 129.15 663.577 133.15 661.877 136.2C660.177 139.25 657.552 141.475 654.002 142.875C650.502 144.325 646.002 145.05 640.502 145.05ZM643.502 120.375C645.502 120.375 647.327 119.925 648.977 119.025C650.627 118.125 651.952 116.825 652.952 115.125C653.952 113.425 654.452 111.375 654.452 108.975V106.35C654.452 104.05 653.927 102.1 652.877 100.5C651.877 98.9 650.552 97.7 648.902 96.9C647.252 96.05 645.452 95.625 643.502 95.625C641.302 95.625 639.352 96.15 637.652 97.2C636.002 98.2 634.702 99.625 633.752 101.475C632.802 103.325 632.327 105.525 632.327 108.075C632.327 110.575 632.802 112.75 633.752 114.6C634.702 116.45 636.002 117.875 637.652 118.875C639.352 119.875 641.302 120.375 643.502 120.375ZM694.024 130.425C690.524 130.425 687.449 129.825 684.799 128.625C682.199 127.425 680.024 125.825 678.274 123.825C676.574 121.775 675.274 119.5 674.374 117C673.524 114.5 673.099 111.95 673.099 109.35V107.925C673.099 105.225 673.524 102.625 674.374 100.125C675.274 97.575 676.574 95.325 678.274 93.375C680.024 91.375 682.174 89.8 684.724 88.65C687.274 87.45 690.224 86.85 693.574 86.85C697.974 86.85 701.649 87.825 704.599 89.775C707.599 91.675 709.849 94.2 711.349 97.35C712.849 100.45 713.599 103.8 713.599 107.4V111.15H677.524V104.775H707.074L703.849 107.925C703.849 105.325 703.474 103.1 702.724 101.25C701.974 99.4 700.824 97.975 699.274 96.975C697.774 95.975 695.874 95.475 693.574 95.475C691.274 95.475 689.324 96 687.724 97.05C686.124 98.1 684.899 99.625 684.049 101.625C683.249 103.575 682.849 105.925 682.849 108.675C682.849 111.225 683.249 113.5 684.049 115.5C684.849 117.45 686.074 119 687.724 120.15C689.374 121.25 691.474 121.8 694.024 121.8C696.574 121.8 698.649 121.3 700.249 120.3C701.849 119.25 702.874 117.975 703.324 116.475H712.924C712.324 119.275 711.174 121.725 709.474 123.825C707.774 125.925 705.599 127.55 702.949 128.7C700.349 129.85 697.374 130.425 694.024 130.425Z" fill="black"/>
<path d="M440.643 345.855C426.238 331.45 404.667 328.511 387.323 336.968L413.338 362.983C416.133 365.778 416.133 370.293 413.338 373.088L401.943 384.483C399.148 387.35 394.633 387.35 391.838 384.483L365.823 358.468C357.438 375.883 360.377 397.311 374.782 411.716C388.112 425.046 407.605 428.558 424.16 422.323L481.207 479.37C488.588 486.751 500.485 486.751 507.795 479.37C515.177 471.988 515.177 460.091 507.795 452.781L451.035 395.95C457.628 379.18 454.188 359.4 440.643 345.855Z" fill="white"/>
<defs>
<filter id="filter0_d_40_182" x="404.7" y="744.7" width="70.1068" height="70.1067" filterUnits="userSpaceOnUse" color-interpolation-filters="sRGB">
<feFlood flood-opacity="0" result="BackgroundImageFix"/>
<feColorMatrix in="SourceAlpha" type="matrix" values="0 0 0 0 0 0 0 0 0 0 0 0 0 0 0 0 0 0 127 0" result="hardAlpha"/>
<feMorphology radius="2" operator="dilate" in="SourceAlpha" result="effect1_dropShadow_40_182"/>
<feOffset dy="4"/>
<feGaussianBlur stdDeviation="3.15"/>
<feComposite in2="hardAlpha" operator="out"/>
<feColorMatrix type="matrix" values="0 0 0 0 0 0 0 0 0 0 0 0 0 0 0 0 0 0 0.5 0"/>
<feBlend mode="normal" in2="BackgroundImageFix" result="effect1_dropShadow_40_182"/>
<feBlend mode="normal" in="SourceGraphic" in2="effect1_dropShadow_40_182" result="shape"/>
</filter>
<filter id="filter1_d_40_182" x="221.4" y="206.61" width="437.2" height="439.99" filterUnits="userSpaceOnUse" color-interpolation-filters="sRGB">
<feFlood flood-opacity="0" result="BackgroundImageFix"/>
<feColorMatrix in="SourceAlpha" type="matrix" values="0 0 0 0 0 0 0 0 0 0 0 0 0 0 0 0 0 0 127 0" result="hardAlpha"/>
<feOffset dy="4"/>
<feGaussianBlur stdDeviation="19.8"/>
<feComposite in2="hardAlpha" operator="out"/>
<feColorMatrix type="matrix" values="0 0 0 0 0 0 0 0 0 0 0 0 0 0 0 0 0 0 0.7 0"/>
<feBlend mode="normal" in2="BackgroundImageFix" result="effect1_dropShadow_40_182"/>
<feBlend mode="normal" in="SourceGraphic" in2="effect1_dropShadow_40_182" result="shape"/>
</filter>
<filter id="filter2_d_40_182" x="0" y="0" width="874" height="214" filterUnits="userSpaceOnUse" color-interpolation-filters="sRGB">
<feFlood flood-opacity="0" result="BackgroundImageFix"/>
<feColorMatrix in="SourceAlpha" type="matrix" values="0 0 0 0 0 0 0 0 0 0 0 0 0 0 0 0 0 0 127 0" result="hardAlpha"/>
<feMorphology radius="2" operator="dilate" in="SourceAlpha" result="effect1_dropShadow_40_182"/>
<feOffset dy="4"/>
<feGaussianBlur stdDeviation="16.5"/>
<feComposite in2="hardAlpha" operator="out"/>
<feColorMatrix type="matrix" values="0 0 0 0 0 0 0 0 0 0 0 0 0 0 0 0 0 0 0.7 0"/>
<feBlend mode="normal" in2="BackgroundImageFix" result="effect1_dropShadow_40_182"/>
<feBlend mode="normal" in="SourceGraphic" in2="effect1_dropShadow_40_182" result="shape"/>
</filter>
</defs>
</svg>
