<svg width="698" height="815" viewBox="0 0 698 815" fill="none" xmlns="http://www.w3.org/2000/svg">
<g filter="url(#filter0_d_40_100)">
<circle cx="348.998" cy="775.866" r="26.7534" fill="white"/>
</g>
<g filter="url(#filter1_d_40_100)">
<rect x="170.174" y="242.21" width="357.649" height="360.465" rx="43" fill="black" fill-opacity="0.64"/>
<rect x="170" y="560" width="358" height="18" fill="#34A8CC"/>
<rect x="170" y="560" width="358" height="43" rx="21.5" fill="#34A8CC"/>
</g>
<g filter="url(#filter2_d_40_100)">
<rect x="35" y="31" width="627.998" height="143.623" rx="49" fill="white"/>
</g>
<path d="M170.39 129.978V83.1027H181.04V129.978H170.39ZM154.565 84.6027V75.2277H196.865V84.6027H154.565ZM204.541 129.978V75.2277H214.966V107.178H213.166C213.166 103.078 213.691 99.6027 214.741 96.7527C215.791 93.9027 217.341 91.7277 219.391 90.2277C221.491 88.7277 224.141 87.9777 227.341 87.9777H227.791C232.441 87.9777 235.966 89.5777 238.366 92.7777C240.766 95.9777 241.966 100.628 241.966 106.728V129.978H231.541V105.753C231.541 103.153 230.791 101.103 229.291 99.6027C227.841 98.1027 225.916 97.3527 223.516 97.3527C220.966 97.3527 218.891 98.2027 217.291 99.9027C215.741 101.553 214.966 103.728 214.966 106.428V129.978H204.541ZM271.399 131.403C267.899 131.403 264.824 130.803 262.174 129.603C259.574 128.403 257.399 126.803 255.649 124.803C253.949 122.753 252.649 120.478 251.749 117.978C250.899 115.478 250.474 112.928 250.474 110.328V108.903C250.474 106.203 250.899 103.603 251.749 101.103C252.649 98.5527 253.949 96.3027 255.649 94.3527C257.399 92.3527 259.549 90.7777 262.099 89.6277C264.649 88.4277 267.599 87.8277 270.949 87.8277C275.349 87.8277 279.024 88.8027 281.974 90.7527C284.974 92.6527 287.224 95.1777 288.724 98.3277C290.224 101.428 290.974 104.778 290.974 108.378V112.128H254.899V105.753H284.449L281.224 108.903C281.224 106.303 280.849 104.078 280.099 102.228C279.349 100.378 278.199 98.9527 276.649 97.9527C275.149 96.9527 273.249 96.4527 270.949 96.4527C268.649 96.4527 266.699 96.9777 265.099 98.0277C263.499 99.0777 262.274 100.603 261.424 102.603C260.624 104.553 260.224 106.903 260.224 109.653C260.224 112.203 260.624 114.478 261.424 116.478C262.224 118.428 263.449 119.978 265.099 121.128C266.749 122.228 268.849 122.778 271.399 122.778C273.949 122.778 276.024 122.278 277.624 121.278C279.224 120.228 280.249 118.953 280.699 117.453H290.299C289.699 120.253 288.549 122.703 286.849 124.803C285.149 126.903 282.974 128.528 280.324 129.678C277.724 130.828 274.749 131.403 271.399 131.403ZM325.694 129.978L311.744 75.2277H322.769L334.094 122.853L331.169 121.128H338.669L335.369 122.853L344.294 77.3277H353.444L342.344 129.978H325.694ZM358.394 129.978L346.319 77.3277H355.844L366.119 122.853L362.894 121.128H370.244L367.394 122.853L377.369 75.2277H387.794L375.344 129.978H358.394ZM395.484 129.978V75.2277H405.909V107.178H404.109C404.109 103.078 404.634 99.6027 405.684 96.7527C406.734 93.9027 408.284 91.7277 410.334 90.2277C412.434 88.7277 415.084 87.9777 418.284 87.9777H418.734C423.384 87.9777 426.909 89.5777 429.309 92.7777C431.709 95.9777 432.909 100.628 432.909 106.728V129.978H422.484V105.753C422.484 103.153 421.734 101.103 420.234 99.6027C418.784 98.1027 416.859 97.3527 414.459 97.3527C411.909 97.3527 409.834 98.2027 408.234 99.9027C406.684 101.553 405.909 103.728 405.909 106.428V129.978H395.484ZM468.791 129.978V117.903H467.066V104.478C467.066 102.128 466.491 100.378 465.341 99.2277C464.191 98.0777 462.416 97.5027 460.016 97.5027C458.766 97.5027 457.266 97.5277 455.516 97.5777C453.766 97.6277 451.991 97.7027 450.191 97.8027C448.441 97.8527 446.866 97.9277 445.466 98.0277V89.1777C446.616 89.0777 447.916 88.9777 449.366 88.8777C450.816 88.7777 452.291 88.7277 453.791 88.7277C455.341 88.6777 456.791 88.6527 458.141 88.6527C462.341 88.6527 465.816 89.2027 468.566 90.3027C471.366 91.4027 473.466 93.1277 474.866 95.4777C476.316 97.8277 477.041 100.903 477.041 104.703V129.978H468.791ZM455.666 131.028C452.716 131.028 450.116 130.503 447.866 129.453C445.666 128.403 443.941 126.903 442.691 124.953C441.491 123.003 440.891 120.653 440.891 117.903C440.891 114.903 441.616 112.453 443.066 110.553C444.566 108.653 446.641 107.228 449.291 106.278C451.991 105.328 455.141 104.853 458.741 104.853H468.191V111.078H458.591C456.191 111.078 454.341 111.678 453.041 112.878C451.791 114.028 451.166 115.528 451.166 117.378C451.166 119.228 451.791 120.728 453.041 121.878C454.341 123.028 456.191 123.603 458.591 123.603C460.041 123.603 461.366 123.353 462.566 122.853C463.816 122.303 464.841 121.403 465.641 120.153C466.491 118.853 466.966 117.103 467.066 114.903L469.616 117.828C469.366 120.678 468.666 123.078 467.516 125.028C466.416 126.978 464.866 128.478 462.866 129.528C460.916 130.528 458.516 131.028 455.666 131.028ZM488.208 129.978V89.2527H496.458V106.503H496.233C496.233 100.653 497.483 96.2277 499.983 93.2277C502.483 90.2277 506.158 88.7277 511.008 88.7277H512.508V97.8027H509.658C506.158 97.8027 503.433 98.7527 501.483 100.653C499.583 102.503 498.633 105.203 498.633 108.753V129.978H488.208ZM520.677 129.978V88.2777C520.677 83.6277 521.952 80.2027 524.502 78.0027C527.102 75.7527 530.927 74.6277 535.977 74.6277H541.077V82.6527H535.227C533.677 82.6527 532.477 83.0777 531.627 83.9277C530.827 84.7277 530.427 85.8777 530.427 87.3777V129.978H520.677ZM515.577 97.5777V89.9277H541.752V97.5777H515.577Z" fill="black"/>
<g clip-path="url(#clip0_40_100)">
<path d="M403.063 443.345L423.745 422.318C428.737 417.242 426.682 408.572 419.953 406.373L407.608 402.338V360.261C407.608 354.954 403.375 350.651 398.155 350.651H379.249V338.637C379.249 334.656 376.074 331.429 372.159 331.429H329.62C325.704 331.429 322.53 334.656 322.53 338.637V350.651H303.624C298.403 350.651 294.171 354.954 294.171 360.261V402.338L281.825 406.373C275.104 408.569 273.035 417.237 278.033 422.318L298.715 443.345C293.529 456.454 281.642 465.978 263.448 465.978C259.533 465.978 256.358 469.205 256.358 473.186V477.992C256.358 481.972 259.533 485.2 263.448 485.2C281.475 485.2 295.204 479.01 305.768 467.361C310.027 477.821 320.173 485.2 331.983 485.2H369.795C381.606 485.2 391.751 477.821 396.011 467.361C406.572 479.008 420.301 485.2 438.33 485.2C442.246 485.2 445.42 481.972 445.42 477.992V473.186C445.42 469.205 442.246 465.978 438.33 465.978C420.364 465.978 408.334 456.668 403.063 443.345ZM313.077 369.872H388.702V396.16L353.782 384.749C351.901 384.134 349.878 384.134 347.997 384.749L313.077 396.16V369.872Z" fill="white"/>
</g>
<defs>
<filter id="filter0_d_40_100" x="313.945" y="744.813" width="70.1068" height="70.1067" filterUnits="userSpaceOnUse" color-interpolation-filters="sRGB">
<feFlood flood-opacity="0" result="BackgroundImageFix"/>
<feColorMatrix in="SourceAlpha" type="matrix" values="0 0 0 0 0 0 0 0 0 0 0 0 0 0 0 0 0 0 127 0" result="hardAlpha"/>
<feMorphology radius="2" operator="dilate" in="SourceAlpha" result="effect1_dropShadow_40_100"/>
<feOffset dy="4"/>
<feGaussianBlur stdDeviation="3.15"/>
<feComposite in2="hardAlpha" operator="out"/>
<feColorMatrix type="matrix" values="0 0 0 0 0 0 0 0 0 0 0 0 0 0 0 0 0 0 0.5 0"/>
<feBlend mode="normal" in2="BackgroundImageFix" result="effect1_dropShadow_40_100"/>
<feBlend mode="normal" in="SourceGraphic" in2="effect1_dropShadow_40_100" result="shape"/>
</filter>
<filter id="filter1_d_40_100" x="130.4" y="206.61" width="437.2" height="439.99" filterUnits="userSpaceOnUse" color-interpolation-filters="sRGB">
<feFlood flood-opacity="0" result="BackgroundImageFix"/>
<feColorMatrix in="SourceAlpha" type="matrix" values="0 0 0 0 0 0 0 0 0 0 0 0 0 0 0 0 0 0 127 0" result="hardAlpha"/>
<feOffset dy="4"/>
<feGaussianBlur stdDeviation="19.8"/>
<feComposite in2="hardAlpha" operator="out"/>
<feColorMatrix type="matrix" values="0 0 0 0 0 0 0 0 0 0 0 0 0 0 0 0 0 0 0.7 0"/>
<feBlend mode="normal" in2="BackgroundImageFix" result="effect1_dropShadow_40_100"/>
<feBlend mode="normal" in="SourceGraphic" in2="effect1_dropShadow_40_100" result="shape"/>
</filter>
<filter id="filter2_d_40_100" x="0" y="0" width="697.998" height="213.623" filterUnits="userSpaceOnUse" color-interpolation-filters="sRGB">
<feFlood flood-opacity="0" result="BackgroundImageFix"/>
<feColorMatrix in="SourceAlpha" type="matrix" values="0 0 0 0 0 0 0 0 0 0 0 0 0 0 0 0 0 0 127 0" result="hardAlpha"/>
<feMorphology radius="2" operator="dilate" in="SourceAlpha" result="effect1_dropShadow_40_100"/>
<feOffset dy="4"/>
<feGaussianBlur stdDeviation="16.5"/>
<feComposite in2="hardAlpha" operator="out"/>
<feColorMatrix type="matrix" values="0 0 0 0 0 0 0 0 0 0 0 0 0 0 0 0 0 0 0.7 0"/>
<feBlend mode="normal" in2="BackgroundImageFix" result="effect1_dropShadow_40_100"/>
<feBlend mode="normal" in="SourceGraphic" in2="effect1_dropShadow_40_100" result="shape"/>
</filter>
<clipPath id="clip0_40_100">
<rect width="189.062" height="192.213" fill="white" transform="translate(256.358 312.208)"/>
</clipPath>
</defs>
</svg>
