<svg width="124" height="124" viewBox="0 0 124 124" fill="none" xmlns="http://www.w3.org/2000/svg">
<path d="M31.2587 21.3903L29.2437 19.3753C27.2287 17.3603 23.9737 17.4119 22.0103 19.3753L21.9587 19.4269C19.9437 21.4419 19.9437 24.6969 21.9587 26.6602L23.9737 28.6753C25.9887 30.6903 29.192 30.6903 31.207 28.6753L31.2587 28.6236C33.2737 26.6602 33.2737 23.3536 31.2587 21.3903ZM15.552 54.2502H10.282C7.44033 54.2502 5.16699 56.5236 5.16699 59.3652V59.4169C5.16699 62.2586 7.44033 64.5319 10.282 64.5319H15.5003C18.3937 64.5836 20.667 62.3102 20.667 59.4686V59.4169C20.667 56.5236 18.3937 54.2502 15.552 54.2502ZM62.052 2.84192H62.0003C59.107 2.84192 56.8337 5.11525 56.8337 7.95692V12.9169C56.8337 15.7586 59.107 18.0319 61.9487 18.0319H62.0003C64.8937 18.0836 67.167 15.8103 67.167 12.9686V7.95692C67.167 5.11525 64.8937 2.84192 62.052 2.84192ZM102.042 19.4269C100.027 17.4119 96.772 17.4119 94.757 19.3753L92.742 21.3903C90.727 23.4053 90.727 26.6602 92.742 28.6236L92.7936 28.6753C94.8086 30.6903 98.0637 30.6903 100.027 28.6753L102.042 26.6602C104.057 24.6453 104.057 21.4419 102.042 19.4269ZM92.6903 97.4436L94.7053 99.4586C96.7203 101.474 99.9753 101.474 101.99 99.4586C104.005 97.4436 104.005 94.1886 101.99 92.1736L99.9753 90.1586C97.9603 88.1436 94.7053 88.1953 92.742 90.1586C90.6753 92.2253 90.6753 95.4286 92.6903 97.4436ZM103.334 59.3652V59.4169C103.334 62.2586 105.607 64.5319 108.449 64.5319H113.667C116.509 64.5319 118.782 62.2586 118.782 59.4169V59.3652C118.782 56.5236 116.509 54.2502 113.667 54.2502H108.449C105.607 54.2502 103.334 56.5236 103.334 59.3652ZM62.0003 28.4169C44.8987 28.4169 31.0003 42.3153 31.0003 59.4169C31.0003 76.5186 44.8987 90.4169 62.0003 90.4169C79.102 90.4169 93.0003 76.5186 93.0003 59.4169C93.0003 42.3153 79.102 28.4169 62.0003 28.4169ZM61.9487 115.992H62.0003C64.842 115.992 67.1153 113.719 67.1153 110.877V105.917C67.1153 103.075 64.842 100.802 62.0003 100.802H61.9487C59.107 100.802 56.8337 103.075 56.8337 105.917V110.877C56.8337 113.719 59.107 115.992 61.9487 115.992ZM21.9587 99.4069C23.9737 101.422 27.2287 101.422 29.2437 99.4069L31.2587 97.3919C33.2737 95.3769 33.222 92.1219 31.2587 90.1586L31.207 90.1069C29.192 88.0919 25.937 88.0919 23.922 90.1069L21.907 92.1219C19.9437 94.1886 19.9437 97.3919 21.9587 99.4069Z" fill="url(#paint0_linear_12_253)"/>
<defs>
<linearGradient id="paint0_linear_12_253" x1="61.9745" y1="2.84192" x2="61.9745" y2="115.992" gradientUnits="userSpaceOnUse">
<stop stop-color="#FF6B00"/>
<stop offset="1" stop-color="#FFA800"/>
</linearGradient>
</defs>
</svg>
